<svg width="1240" height="560" fill="none" xmlns="http://www.w3.org/2000/svg"><g clip-path="url(#a)"><path d="M444.858 192.469H33.675v411.252h411.183V192.469z" fill="#000"/><path d="M-268.894 608.67H921.028V183.168H-268.894V608.67z" fill="#fff"/><path d="M29.21 635.658h1914.02c158.64-56.548 456.66-363.375 324.15-397.869-142.64-37.131 98.22-155.203-121.51-196.884-143.47-27.214-731.92 129.515-826.89 70.927-111.59-68.836-296.96-152.62-642.196-87.513-266.268 50.215-484.231-4.935-919.95 24.211-224.05 14.988-168.004 302.032-147.113 328.529 18.196 23.079 194.723 129.784 27.423 180.195-245.321 73.922 386.283 77.043 392.066 78.404z" fill="#DFEEFB"/><path d="M140.662 459.002s100.515-78.202 160.295-77.951c59.781.252 124.901 51.51 209.974 95.286 95.336 49.059-29.149 51.117-36.334 51.521-7.185.404-255.062-4.973-259.196-7.621-4.134-2.648-70.318-36.567-70.318-36.567l-4.421-24.668z" fill="#8FC4F2"/><path d="M656.415 461.351h4.247v-28.917h-4.247v28.917z" fill="#151313"/><path d="m658.537 376.332 13.865 68.82h-27.73l13.865-68.82z" fill="#1775C8"/><path opacity=".2" d="m667.38 420.194-19.771 10.412.76-3.773 18.396-9.688.615 3.049zM664.337 405.111l-12.107 2.543.569-2.826 11.015-2.312.523 2.595z" fill="#fff"/><path d="m77.938 410.426 12.379 61.44H65.559l12.38-61.44zM99.75 419.457l9.427 46.793H90.322l9.427-46.793zM118.601 433.387l9.428 46.793h-18.855l9.427-46.793zM54.774 424.16l12.378 61.44H42.395l12.379-61.44z" fill="#1775C8"/><path d="M101.578 443.263c107.378 10.973 268.496 109.585 391.214 109.585 122.717 0 149.141-23.586 195.16-18.599 46.019 4.988 107.798 18.599 107.798 18.599l-911.922 1.655s110.373-122.212 217.75-111.24z" fill="#8FC4F2"/><path d="m490.266 414.523 12.379 61.441h-24.757l12.378-61.441zM519.747 432.613l9.428 46.793H510.32l9.427-46.793zM445.46 457.59l9.428 46.793h-18.856l9.428-46.793zM467.102 428.238l12.379 61.44h-24.757l12.378-61.44z" fill="#1775C8"/><path d="M588.285 443.263c-107.378 10.973-268.496 109.585-391.213 109.585-122.718 0-149.142-23.586-195.161-18.599-46.02 4.988-107.798 18.599-107.798 18.599l911.922 1.655s-110.372-122.212-217.75-111.24z" fill="#8FC4F2"/><path d="M551.537 535.326h4.846v-32.99h-4.846v32.99z" fill="#151313"/><path d="m553.953 438.34 15.818 78.513h-31.637l15.819-78.513z" fill="#1775C8"/><path opacity=".2" d="m564.034 488.373-22.555 11.879.867-4.304 20.987-11.053.701 3.478zM560.563 471.169l-13.812 2.9.649-3.224 12.566-2.638.597 2.962z" fill="#fff"/><path d="M606.293 549.397h4.624v-49.76h-4.624v49.76z" fill="#151313"/><path d="m607.396 410.922 22.784 100.44h-45.569l22.785-100.44z" fill="#1775C8"/><path opacity=".2" d="m628.736 504.983-40.884-7.915.618-2.724 39.591 7.665.675 2.974zM621.527 473.25l-27.093-5.245.618-2.724 25.8 4.995.675 2.974z" fill="#fff"/><path d="M-116.172 554.508s117.728-62.806 269.527-66.665c50.974-1.295 259.698 24.68 435.462 45.087 7.389.858 23.364 9.257 30.846 10.121 83.207 9.605 160.753 11.636 185.833 12.255l-921.668-.798z" fill="#7FBBF0"/><path d="m830.225 485.417.17-5.408c0-4.011-4.985-7.263-11.133-7.263-15.494 0-28.053 8.194-28.053 18.303v7.39c0 3.237-2.8 6.048-6.905 7.459-3.729 1.281-6.009 3.841-6.009 6.59v3.896c0 4.218 3.035 8.156 8.077 10.796 2.949 1.544 4.837 3.915 4.837 6.574v5.517c0 6.098 7.578 11.042 16.926 11.042h5.333c9.348 0 16.927-4.944 16.927-11.042v-.001c-1.535-7.703 2.184-12.149 6.474-14.69 6.308-3.737 10.002-8.992 10.002-14.551v-.779c0-5.868-4.149-11.361-11.085-15.096-3.061-1.649-5.561-4.341-5.561-8.737z" fill="#5FAAEC"/><path d="M847.646 556.717s-43.218-35.256-70.414-40.663c-27.196-5.408-1.564 16.069-1.564 16.069s-48.246-32.401-65.95-29.48c-16.229 2.678 0 22.761 0 22.761s-18.28-11.121-40.446-11.121c-22.167 0 17.133 41.642 17.133 41.642l161.241.792z" fill="#6FB3EE"/><path d="M709.717 555.927s-29.542-48.52-66.128-42.909c-29.649 4.547-8.57 28.961-10.377 27.851-1.807-1.11-17.709-17.681-43.438-17.681-25.729 0 7.898 22.364 7.898 22.364s-54.819-10.514-59.111.527c-3.563 9.163 16.361 9.848 16.361 9.848h154.795z" fill="#6FB3EE"/><path d="M34.32 546.869a6.97 6.97 0 0 0 .254-1.853c0-7.023-10.717-12.715-23.935-12.715-13.219 0-23.935 5.692-23.935 12.715 0 .629.087 1.248.253 1.853h47.364z" fill="#7FBBF0"/><path d="M61.414 543.752c.166-.853.253-1.726.253-2.614 0-9.903-10.716-17.931-23.934-17.931-13.219 0-23.935 8.028-23.935 17.931 0 .888.087 1.761.253 2.614h47.363z" fill="#6FB3EE"/><path d="M52.653 554.732a6.97 6.97 0 0 1-.253-1.853c0-7.022 10.716-12.715 23.934-12.715 13.219 0 23.935 5.693 23.935 12.715 0 .629-.087 1.248-.253 1.853H52.653z" fill="#6FB3EE"/><path d="M14.346 554.732a10.86 10.86 0 0 1-.321-2.614c0-9.903 13.584-17.93 30.341-17.93s30.342 8.027 30.342 17.93c0 .888-.11 1.761-.32 2.614H14.345z" fill="#7FBBF0"/><path d="M37.646 534.188c-8.376 0-15.857 2.546-20.795 6.541a55.25 55.25 0 0 0-7.956-.565c-14.87 0-26.923 5.693-26.923 12.715 0 .629.097 1.249.285 1.853h82.027a12.16 12.16 0 0 0 .285-2.614c0-9.903-12.054-17.93-26.923-17.93z" fill="#6FB3EE"/><path d="M2.108 493.615c-1.592 1.647-3.877 2.669-6.198 2.949-.392-1.714.176-3.644 1.768-5.291 1.592-1.647 3.878-2.669 6.198-2.949.392 1.714-.176 3.644-1.768 5.291zM-4.564 500.825c2.379.021 4.46.759 5.82 1.907-1.52 1.121-3.702 1.821-6.08 1.799-2.378-.021-4.459-.759-5.82-1.907 1.52-1.122 3.702-1.821 6.08-1.799zM-86.465 554.298c0-1.885 18.54.34 20.082-2.23 1.543-2.569-15.878-2.716-15.878-6.191 0-3.475 8.878-1.038 14.084-1.038 5.205 0-10.279-1.488-10.279-2.718 0-1.229 5.433-.585 5.433-1.891s-28.529-2.291-25.19-5.488c3.339-3.196 18.676.932 22.887-.722 4.212-1.654-22.498-3.458-23.159-5.917-.66-2.46 19.681 2.107 22.562.338 2.88-1.769-32.166-8.126-30.698-12.799 1.469-4.673 26.563 5.984 32.837 4.836 6.274-1.147-31.635-17.55-22.825-23.941 8.81-6.391 25.628 21.154 31.368 20.17 5.74-.983-7.188-17.405-1.325-20.261 5.864-2.857 22.693 23.12 23.756 28.454 1.062 5.334 3.198-11.474 12.408-13.44 9.21-1.967.267 10.412 1.869 14.183 1.601 3.771 9.076-9.673 19.154-8.689 10.079.983-18.22 13.28-15.417 16.887 2.804 3.607 24.655-12.042 31.502-7.836 6.847 4.205-26.32 15.876-24.506 19.071 1.814 3.194 21.713-2.281 27.443 1.238s-21.377 5.754-24.97 5.754c-3.595 0-17.331 2.775-3.916 2.23 13.415-.546-67.222 1.885-67.222 0z" fill="#7FBBF0"/><path d="M-33.618 556.478s22.326.734 28.826-1.779 1.37-4.469 1.37-4.469 20.645-.276 20.594-3.28c-.053-3.005-5.056-2.831-5.056-2.831s10.42-4.35 8.476-7.061c-2.986-4.166-19.96 3.088-19.96 3.088s5.565-4.058 1.07-5.007c-12.342-2.603-35.32 21.339-35.32 21.339z" fill="#6FB3EE"/><path d="M20.592 537.055c1.944 2.711-8.477 7.06-8.477 7.06s7.521-.061 6.3 2.86c-1.216 2.911-20.125 3.893-20.125 3.893s6.602.793.102 3.306c-6.5 2.514-32.01 2.3-32.01 2.3l54.21-19.419zM-47.149 413.487a54.985 54.985 0 0 1-.42-6.793c0-25.735 17.785-46.596 39.723-46.596s39.723 20.861 39.723 46.596c0 2.307-.144 4.575-.42 6.793H-47.15z" fill="#7FBBF0"/><path d="M-52.653 367.008c13.9 0 26.316 9.333 34.511 23.971a42.983 42.983 0 0 1 13.204-2.067c24.677 0 44.683 20.862 44.683 46.596 0 2.307-.162 4.575-.473 6.793H-96.864a97.012 97.012 0 0 1-.472-9.58c0-36.292 20.005-65.713 44.683-65.713z" fill="#6FB3EE"/><path d="M1485.27 460.154s-100.52-78.202-160.3-77.95c-59.78.251-124.9 51.509-209.97 95.286-95.34 49.058 29.15 51.117 36.33 51.521 7.19.404 255.07-4.973 259.2-7.622 4.13-2.648 70.32-36.566 70.32-36.566l4.42-24.669z" fill="#8FC4F2"/><path d="M969.526 462.503h-4.248v-28.917h4.248v28.917z" fill="#151313"/><path d="m967.396 377.492-13.865 68.82h27.73l-13.865-68.82z" fill="#1775C8"/><path opacity=".2" d="m958.56 421.346 19.77 10.412-.76-3.772-18.397-9.689-.613 3.049zM961.6 406.264l12.106 2.542-.569-2.825-11.014-2.313-.523 2.596z" fill="#fff"/><path d="M1524.35 444.424c-107.38 10.972-268.49 109.584-391.21 109.584-122.72 0-149.143-23.586-195.163-18.598-46.019 4.987-107.797 18.598-107.797 18.598l911.92 1.655s-110.37-122.212-217.75-111.239z" fill="#A299F7"/><path d="m1135.67 415.676-12.38 61.44h24.76l-12.38-61.44zM1106.19 433.766l-9.43 46.793h18.86l-9.43-46.793zM1180.48 458.75l-9.43 46.793h18.86l-9.43-46.793zM1158.84 429.398l-12.38 61.441h24.75l-12.37-61.441z" fill="#1775C8"/><path d="M1037.65 444.424c107.38 10.972 268.5 109.584 391.21 109.584 122.72 0 149.14-23.586 195.16-18.598 46.02 4.987 107.8 18.598 107.8 18.598l-911.921 1.655s110.373-122.212 217.751-111.239z" fill="#8FC4F2"/><path d="M1074.4 536.478h-4.84v-32.99h4.84v32.99z" fill="#151313"/><path d="m1071.99 439.488-15.82 78.513h31.63l-15.81-78.513z" fill="#1775C8"/><path opacity=".2" d="m1061.91 489.529 22.55 11.879-.87-4.304-20.98-11.053-.7 3.478zM1065.37 472.321l13.81 2.9-.65-3.223-12.56-2.639-.6 2.962z" fill="#fff"/><path d="M1019.65 550.549h-4.62v-49.76h4.62v49.76z" fill="#151313"/><path d="m1018.54 412.074-22.783 100.44h45.573l-22.79-100.44z" fill="#1775C8"/><path opacity=".2" d="m997.199 506.132 40.881-7.916-.62-2.724-39.587 7.665-.674 2.975zM1004.4 474.407l27.09-5.246-.61-2.723-25.8 4.995-.68 2.974z" fill="#fff"/><path d="M1742.1 555.66s-117.73-62.806-269.53-66.664c-50.97-1.296-259.7 24.679-435.46 45.086-7.39.858-23.36 9.257-30.85 10.121-83.203 9.606-160.749 11.636-185.829 12.256l921.669-.799z" fill="#7FBBF0"/><path d="m795.711 486.577-.17-5.408c0-4.011 4.984-7.263 11.133-7.263 15.493 0 28.053 8.194 28.053 18.303v7.39c0 3.237 2.8 6.048 6.905 7.459 3.729 1.281 6.009 3.841 6.009 6.59v3.896c0 4.218-3.035 8.156-8.077 10.796-2.949 1.544-4.837 3.915-4.837 6.574v5.517c0 6.098-7.578 11.042-16.926 11.042h-5.333c-9.348 0-16.927-4.944-16.927-11.042v-.001c1.535-7.703-2.184-12.149-6.474-14.69-6.309-3.737-10.002-8.992-10.002-14.551v-.78c0-5.867 4.149-11.36 11.084-15.095 3.062-1.649 5.562-4.341 5.562-8.737z" fill="#5FAAEC"/><path d="M778.295 557.878s43.218-35.257 70.414-40.664c27.196-5.407 1.564 16.069 1.564 16.069s48.246-32.401 65.95-29.48c16.23 2.678 0 22.761 0 22.761s18.279-11.121 40.446-11.121c22.166 0-17.133 41.642-17.133 41.642l-161.241.793z" fill="#5FAAEC"/><path d="M916.218 557.088s29.543-48.521 66.129-42.91c29.653 4.547 8.569 28.961 10.377 27.851 1.806-1.11 17.706-17.681 43.436-17.681s-7.9 22.364-7.9 22.364 54.82-10.514 59.11.527c3.57 9.163-16.36 9.849-16.36 9.849H916.218z" fill="#6FB3EE"/><path opacity=".2" d="M291.992 308.158c-1.788-4.779-8.752-8.345-17.076-8.345-1.528 0-3.01.121-4.424.347-4.108-5.396-13.024-9.135-23.363-9.135a41 41 0 0 0-7.676.713c-5.566-5.66-15.678-9.445-27.231-9.445-13.744 0-25.451 5.357-29.886 12.858-3.14-1.075-6.755-1.691-10.605-1.691-12.047 0-21.814 5.999-21.814 13.398 0 .439.037.872.104 1.3h141.971zM485.532 391.733c.861-2.302 4.214-4.019 8.223-4.019.736 0 1.449.058 2.13.167 1.979-2.598 6.272-4.399 11.251-4.399 1.288 0 2.529.121 3.696.344 2.68-2.726 7.55-4.549 13.114-4.549 6.618 0 12.256 2.58 14.392 6.192 1.512-.518 3.253-.814 5.107-.814 5.801 0 10.504 2.889 10.504 6.452 0 .211-.018.42-.05.626h-68.367zM365.502 361.803c-1.058-2.829-5.178-4.939-10.105-4.939a16.7 16.7 0 0 0-2.618.205c-2.431-3.193-7.708-5.405-13.826-5.405-1.582 0-3.108.147-4.542.422-3.294-3.35-9.279-5.59-16.115-5.59-8.134 0-15.062 3.171-17.687 7.609-1.858-.636-3.997-1-6.276-1-7.13 0-12.909 3.55-12.909 7.928 0 .26.022.517.061.77h84.017zM529.171 328.582c-1.429-3.82-6.994-6.669-13.647-6.669-1.221 0-2.406.096-3.535.276-3.284-4.312-10.41-7.3-18.673-7.3-2.137 0-4.197.2-6.134.57-4.449-4.524-12.531-7.549-21.763-7.549-10.985 0-20.341 4.282-23.886 10.276-2.51-.859-5.398-1.35-8.475-1.35-9.629 0-17.435 4.793-17.435 10.707 0 .35.03.697.083 1.039h113.465zM71.445 375.23c.713-1.904 3.487-3.324 6.803-3.324.61 0 1.2.048 1.763.138 1.636-2.15 5.189-3.639 9.308-3.639 1.065 0 2.092.099 3.057.284 2.218-2.255 6.247-3.763 10.849-3.763 5.476 0 10.14 2.134 11.907 5.122 1.251-.428 2.691-.673 4.225-.673 4.8 0 8.69 2.39 8.69 5.337a3.3 3.3 0 0 1-.041.518h-56.56zM3.4 237.051c-1.298-3.472-6.358-6.063-12.407-6.063-1.11 0-2.187.088-3.214.252-2.985-3.921-9.464-6.638-16.976-6.638-1.943 0-3.816.182-5.578.519-4.044-4.113-11.391-6.863-19.785-6.863-9.987 0-18.494 3.893-21.717 9.342-2.281-.781-4.907-1.228-7.705-1.228-8.754 0-15.85 4.359-15.85 9.735 0 .318.026.634.075.944H3.401zM652.226 264.438c-2.788-7.451-13.644-13.01-26.622-13.01-2.383 0-4.693.188-6.897.54-6.405-8.412-20.305-14.241-36.425-14.241-4.168 0-8.187.39-11.967 1.112-8.678-8.825-24.444-14.726-42.454-14.726-21.428 0-39.68 8.353-46.596 20.046-4.894-1.676-10.53-2.635-16.533-2.635-18.782 0-34.009 9.352-34.009 20.887 0 .684.058 1.36.162 2.027h221.341zM812.663 397.967c.86-2.301 4.214-4.018 8.222-4.018.736 0 1.45.058 2.131.166 1.978-2.598 6.272-4.398 11.251-4.398 1.287 0 2.528.12 3.696.343 2.68-2.726 7.55-4.548 13.113-4.548 6.619 0 12.256 2.58 14.392 6.191 1.512-.517 3.253-.813 5.107-.813 5.802 0 10.504 2.888 10.504 6.451 0 .211-.017.42-.05.626h-68.366zM732.141 341.682c-.872-2.332-4.269-4.072-8.331-4.072-.745 0-1.469.059-2.158.17-2.004-2.633-6.355-4.457-11.399-4.457-1.304 0-2.562.122-3.745.348-2.715-2.762-7.649-4.609-13.286-4.609-6.706 0-12.417 2.614-14.581 6.273-1.533-.524-3.296-.824-5.175-.824-5.878 0-10.642 2.927-10.642 6.537 0 .214.018.425.05.634h69.267zM877.703 285.113c-1.429-3.82-6.994-6.669-13.647-6.669-1.222 0-2.406.096-3.536.277-3.283-4.313-10.409-7.301-18.673-7.301-2.136 0-4.196.2-6.134.57-4.448-4.523-12.53-7.549-21.763-7.549-10.985 0-20.341 4.282-23.886 10.277-2.509-.86-5.398-1.351-8.475-1.351-9.629 0-17.434 4.794-17.434 10.707 0 .351.03.697.083 1.039h113.465zM449.427 355.736c.613-1.638 2.998-2.859 5.85-2.859.523 0 1.031.041 1.515.119 1.407-1.849 4.462-3.13 8.004-3.13a14 14 0 0 1 2.629.245c1.907-1.939 5.371-3.236 9.329-3.236 4.708 0 8.719 1.835 10.238 4.405 1.076-.369 2.314-.579 3.633-.579 4.128 0 7.474 2.054 7.474 4.589 0 .151-.013.299-.036.446h-48.636zM1373.58 318.298c-1.79-4.779-8.75-8.344-17.07-8.344-1.53 0-3.01.121-4.43.346-4.11-5.396-13.02-9.134-23.36-9.134-2.68 0-5.25.25-7.68.713-5.56-5.66-15.68-9.445-27.23-9.445-13.74 0-25.45 5.357-29.88 12.857-3.14-1.075-6.76-1.69-10.61-1.69-12.05 0-21.81 5.998-21.81 13.397 0 .439.03.873.1 1.3h141.97zM1153.02 385.371c.72-1.904 3.49-3.324 6.81-3.324.6 0 1.2.048 1.76.137 1.63-2.149 5.19-3.639 9.31-3.639 1.06 0 2.09.1 3.05.285 2.22-2.256 6.25-3.764 10.85-3.764 5.48 0 10.14 2.135 11.91 5.123 1.25-.428 2.69-.673 4.22-.673 4.8 0 8.69 2.389 8.69 5.337 0 .175-.01.347-.04.518h-56.56zM1084.99 247.18c-1.3-3.473-6.36-6.063-12.41-6.063-1.11 0-2.19.088-3.22.252-2.98-3.921-9.46-6.638-16.97-6.638-1.94 0-3.82.182-5.58.519-4.04-4.113-11.39-6.863-19.78-6.863-9.99 0-18.5 3.892-21.72 9.342-2.28-.781-4.91-1.228-7.707-1.228-8.754 0-15.85 4.358-15.85 9.735 0 .318.027.633.076.944h103.161zM820.929 350.82c1.971-5.267 9.646-9.197 18.82-9.197 1.684 0 3.318.133 4.876.382 4.528-5.947 14.355-10.068 25.751-10.068 2.946 0 5.787.275 8.46.786 6.134-6.239 17.28-10.411 30.013-10.411 15.148 0 28.051 5.905 32.94 14.172 3.46-1.185 7.445-1.863 11.688-1.863 13.279 0 24.043 6.611 24.043 14.766 0 .484-.041.961-.114 1.433H820.929z" fill="#fff"/><path d="M2031.96 559.941H-269.692c-4.826 0-8.737-1.353-8.737-3.021 0-1.669 3.911-3.022 8.737-3.022H2031.96c4.83 0 8.74 1.353 8.74 3.022 0 1.668-3.91 3.021-8.74 3.021z" fill="#4FA2EA"/><path d="m225.632 491.421.004-.452 55.318 4.709.197.233-55.519-4.49z" fill="#C4DDF9"/><path d="M20.162 263.757c-.443.162-.796.031-1.175-.247l1.083 1.404-.06.07c-.504-.074-.847-.472-1.255-.834.27.552.603 1.02.718 1.683-.573-.343-.911-.861-1.279-1.446.224.65.493 1.201.517 1.91-.516-.433-.768-.998-1.057-1.587.044.54.246 1.027.177 1.541l-.084.049-.619-.945-.094.445-.578-.463c-.034.018-.1.083-.134.066-.358-.172-.71-.357-1.12-.568-.26.094-.388.008-.47-.417-.202.128-.408.267-.597.008-.383.197-.437.187-.556-.063-.15-.002-.36.056-.407-.017-.136-.216-.584.159-.515-.321-.25-.168-.56-.136-.759-.43-.278.035-.278.035-.352-.213-.161.002-.383.111-.374-.224-.371.002-.371.002-.321-.317l-.417.017.102-.405-.425.054-.004-.266-.265-.015.033-.225-.262-.224c-.011.017-.07.076-.098.149-.277.702-.549 1.407-.821 2.11-.007.018-.01.039-.021.052-.1.113-.205.318-.303.314-.112-.005-.217-.195-.352-.331-.266.114-.45.07-.575-.158l-.523.069-.075-.359c-.074.032-.14.08-.208.086-.094.009-.252.023-.277-.029-.11-.233-.283-.315-.491-.369-.022-.005-.044-.177-.013-.24.075-.154.18-.289.29-.46-.226.095-.462.334-.641.071-.078-.115.024-.383.044-.582l-.443-.049c.03-.193.056-.369.087-.582a23.03 23.03 0 0 1-.224-.138l.203-.487c-.25-.211-.23-.333.128-.654l-.364-.381c.1-.24.265-.247.44-.246.412.003.825-.001 1.238-.005a.461.461 0 0 0 .252-.077c-.208-.024-.43-.003-.407-.351-.306.097-.381-.08-.368-.35-.109-.001-.236.04-.303-.014-.063-.05-.063-.2-.096-.329-.29.121-.321-.095-.302-.362-.163.018-.35.108-.322-.216.004-.046-.139-.108-.179-.193-.068-.095-.155-.18-.2-.287-.04-.097-.037-.217-.057-.349-.134-.091-.31-.194-.467-.327-.04-.036-.017-.167-.025-.268-.233-.155-.233-.187.033-.576-.086.018-.165.054-.239.044-.055-.006-.15-.072-.149-.109.006-.209.035-.417.057-.628-.077-.014-.205 0-.284-.064-.074-.059-.095-.201-.167-.372-.105-.049-.328-.101-.215-.405l-.754-.669.782-.247-1.105-.197-.015-.083c.166-.053.33-.119.5-.154.174-.036.352-.047.528-.06.182-.014.365-.018.547-.063l-1.707-.257c.536-.313 1.104-.226 1.673-.253l-1.394-.401c.318-.187.647-.156.972-.111.322.044.642.117.94.174l-1.692-.887.03-.095c.714-.03 1.344.352 2.012.573-.488-.436-1.035-.79-1.414-1.372.792.241 1.435.8 2.145 1.229l-.91-1.032.043-.071c.057.018.122.023.17.057.362.259.735.502 1.077.79.952.8 1.898 1.608 2.83 2.438.222.198.412.47.556.748.501.966 1.1 1.841 1.838 2.59.417.424 1.248.484 1.763.207.191-.103.415-.152.628-.175.296-.032.39.073.454.376-.095.098-.194.165-.248.264-.15.272-.268.567-.424.835-.08.139-.062.228.038.31.203.168.404.344.62.486.787.517 1.584 1.005 2.445 1.365.428.18.803.516 1.207.773.529.335 1.06.666 1.593.991.282.172.572.329.858.492l.056-.065-.843.08 1.186.846zM231.704 208.216l.054-.051.153-.03c-.514.628-1.133 1.062-1.736 1.513l.041.056 2.03-1.322c-.418.624-1.114.893-1.69 1.314a.512.512 0 0 1 .022.04l2.068-.932a.846.846 0 0 0 .022.042c-.498.414-1.116.622-1.664.959l1.443-.415.022.062-1.096.481.012.044.625-.119.028.059c-.111.076-.226.146-.33.23-.042.034-.055.101-.089.148a1.518 1.518 0 0 1-.153.194c-.055.056-.122.101-.201.164.167.069.127.139.017.216-.115.08-.265.137-.236.326.004.025-.036.069-.066.083-.194.096-.335.25-.472.411-.123.145-.245.291-.373.431-.034.038-.088.061-.136.084-.094.043-.193.076-.285.123-.407.205-.812.415-1.22.619-.185.093-.376.173-.561.265-.046.024-.073.085-.118.111-.076.042-.159.071-.24.102-.042.017-.087.027-.131.039a1.072 1.072 0 0 1-.283.052c-.112.106-.22.228-.406.134-.244.354-.661.211-.982.39.037.197-.178.205-.34.324.072.039.12.085.171.088.668.034 1.336.062 2.004.094.106.005.211.026.317.04l.041.078-.214.153c.057.097.168.206.148.275-.028.094-.157.158-.244.234.216.341.216.341-.037.552.118.308.11.318-.343.41-.022.101-.017.248-.065.268a.754.754 0 0 1-.364.029c-.083-.01-.16-.074-.263-.125.04.129.076.225.098.324.027.118-.034.163-.149.177-.073.009-.141.058-.214.081-.05.015-.104.019-.157.023-.028.002-.057-.013-.085-.01-.332.031-.332.031-.547-.121-.381.446-.605-.079-.925-.147.073.118.145.227.206.342.014.027.004.098-.017.109-.081.044-.176.109-.256.098a.365.365 0 0 1-.318-.294c-.018-.07-.04-.138-.061-.207-.396.089-.529-.015-.547-.413a1.992 1.992 0 0 1-.003-.11c0-.166.049-.351-.011-.491-.056-.132-.226-.215-.379-.349-.062.068-.119.146-.191.206-.044.037-.109.049-.165.072-.276.115-.553.227-.827.346-.288.125-.573.256-.859.386a.313.313 0 0 0-.089.07c-.019.022-.022.067-.044.077-.245.11-.492.217-.74.321a1.818 1.818 0 0 1-.267.089c-.212.052-.426.099-.639.146-.035.008-.097-.008-.106.009-.159.298-.527.218-.748.413-.061.053-.199.018-.301.027-.05.004-.103.008-.149.026-.17.069-.319.218-.532.126-.028-.012-.084.039-.126.063l-.477.284.019-.346-.754.641a.795.795 0 0 0-.046-.035l.409-.744-.043-.026-1.155.979-.063-.063.905-1.022-.023-.025-1.479 1.042-.048-.064 1.286-1.055-.031-.042c-.533.336-1.036.726-1.65.917l1.587-1.018-.024-.042-1.738.842-.039-.072c1.144-.455 2.161-1.117 3.119-1.881-.064.015-.128.032-.192.045a.304.304 0 0 1-.193-.013c.111-.049.227-.09.333-.149.413-.231.822-.469 1.235-.699.134-.074.272-.144.416-.196.624-.223 1.25-.443 1.877-.656.32-.109.648-.191.967-.301.258-.09.274-.141.291-.416.004-.071.062-.154.12-.201a.367.367 0 0 1 .221-.078c.423.003.768-.278 1.179-.314.006-.001.011-.006.017-.007.576-.047 1.024-.364 1.496-.66.376-.237.822-.359 1.214-.575.362-.2.7-.448 1.036-.691.252-.182.484-.39.725-.587l.048.128c.869-.293 1.306-.966 1.572-1.789.048-.151.101-.3.159-.47.127.323-.009.676-.595 1.569.062-.033.097-.045.124-.067a5.65 5.65 0 0 0 1.496-1.873c.05-.102.121-.194.182-.29.004.345-.106.656-.324.917-.267.318-.555.62-.834.929-.028.031-.054.064-.081.096.749-.43 1.372-1.01 2.024-1.554z" fill="#fff"/><path d="M301.17 559.998c8.548 0 15.478-6.918 15.478-15.452 0-8.534-6.93-15.452-15.478-15.452-8.549 0-15.479 6.918-15.479 15.452 0 8.534 6.93 15.452 15.479 15.452zM200.278 544.546c0 8.585-6.879 15.452-15.478 15.452s-15.479-6.867-15.479-15.452 6.88-15.452 15.479-15.452 15.478 6.867 15.478 15.452z" fill="#151414"/><path d="M354.194 513.644c-2.293-22.034-4.873-39.775-8.599-52.366-3.726-12.305-4.013-19.173-22.931-19.173H89.912c-5.447 0-9.746 2.576-11.753 9.157h186.317c8.886 0 7.739 22.607 8.026 49.219 0 11.16-.259 27.324-.259 42.777l78.225-.14c-.287 0 5.733-8.299 3.726-29.474z" fill="#3F9AE9"/><path d="M264.476 451.258H78.159c-.86 2.861-1.433 6.295-1.433 10.588v71.252l11.752 10.588 184.024-.287v-58.375c0-26.612.859-33.766-8.026-33.766z" fill="#1E88E5"/><path d="M197.402 543.703s-6.879-21.176-41.85-29.76c-26.657-6.582-34.683-29.474-34.683-29.474l-6.88-1.145s-1.719 5.151 3.44 14.308c4.873 9.443 11.179 13.163 11.179 13.163s-17.198-.858-32.964-13.449c-7.166-5.723-7.166-12.877-7.166-12.877h-7.452s.86 15.166 6.593 20.031c12.612 10.873 27.517 14.021 43.856 19.744 22.644 8.013 25.797 19.459 25.797 19.459h40.13zM154.403 482.454s7.74 21.748 23.218 24.609c28.091 5.151 37.55 15.453 37.55 15.453s-2.866-10.302-12.039-16.025c-11.752-7.44-21.498-5.151-24.364-18.028-1.72-7.44-24.365-6.009-24.365-6.009z" fill="#8FC4F2"/><path d="M162.439 521.086s9.459 4.292 15.192 11.446c5.732 7.154 6.879 11.446 6.879 11.446h9.746s-6.306-10.301-14.046-15.166c-7.739-5.151-17.771-7.726-17.771-7.726z" fill="#1E88E5"/><path d="M350.181 543.117s-243.645-3.434-254.537-3.434c-10.892 0-18.918-6.581-18.918-6.581s1.72 10.587 18.058 14.307c9.459 2.003 202.369 2.003 242.785 2.003 4.586 0 8.599-1.717 11.752-5.15l.86-1.145z" fill="#151414"/><path d="M280.815 513.645s-.286 9.729 7.74 12.59c7.739 3.148 18.918 4.865 18.918 4.865s.86-6.868-6.02-10.588c-7.452-3.72-20.638-6.867-20.638-6.867zM354.197 513.645s-4.013 4.006-6.306 8.87c-2.293 4.865-3.153 8.871-3.153 8.871s8.6-2.003 10.033-4.292c.573-7.154-.574-13.449-.574-13.449zM131.186 484.743s-.573 8.299 10.319 16.597c6.879 5.437 16.625 7.154 16.625 7.154s-12.899-10.874-16.338-17.455l-3.153-6.582-7.453.286z" fill="#8FC4F2"/><path d="M341.58 546.258v-2.29c0-3.434-2.866-6.581-6.592-6.581h-21.785c-3.44 0-6.593 2.861-6.593 6.581v2.29h34.97zM353.622 507.352s-.86-9.157-2.867-24.609c-2.293-15.453-8.599-31.477-8.599-31.477h-52.742c.287 9.157.86 32.335 4.3 46.07 1.72 6.582 4.299 11.16 7.166 14.594 7.452.859 16.625 1.717 26.657 1.717 15.479 0 26.085-6.295 26.085-6.295z" fill="#151414"/><path d="M289.701 451.266c-4.3 0-10.893 1.717-10.893 9.157 0 11.16.86 28.043 1.72 38.63.287 5.723 4.873 10.588 10.892 11.733 2.867.572 6.02.858 9.746 1.43-2.866-3.433-5.733-8.298-7.166-14.593-3.44-14.022-4.013-37.2-4.299-46.357zM178.77 510.215s2.006 6.295 8.885 9.443c10.606 4.865 16.052 18.028 16.052 18.028s.574-9.443-2.006-14.022c-2.293-4.006-6.88-6.581-11.179-8.012-5.733-2.003-11.752-5.437-11.752-5.437z" fill="#8FC4F2"/><path d="M148.962 459.852h-35.83v30.904h35.83v-30.904zM187.947 459.852h-35.83v30.904h35.83v-30.904zM81.03 491.037h28.951v-30.904H81.03v30.904zM264.197 528.81v-68.677h-34.111v53.224c8.026 1.145 22.358 2.004 34.111 15.453zM227.216 459.852h-35.83v30.904h35.83v-30.904z" fill="#151414"/><path d="M148.962 451.258h-35.83v8.584h35.83v-8.584zM187.947 451.258h-35.83v8.584h35.83v-8.584zM85.33 451.258c-4.3 0-4.3 6.295-4.3 8.584h28.951v-8.584H85.33zM255.591 451.258h-25.225v8.584h34.111c-.287-4.578-4.3-8.584-8.886-8.584zM227.216 451.258h-35.83v8.584h35.83v-8.584z" fill="#8FC4F2"/><path d="M122.021 559.991c8.548 0 15.478-6.919 15.478-15.453 0-8.534-6.93-15.452-15.478-15.452-8.549 0-15.479 6.918-15.479 15.452 0 8.534 6.93 15.453 15.479 15.453z" fill="#151414"/><path d="M122.015 553.984c5.224 0 9.459-4.228 9.459-9.443 0-5.216-4.235-9.443-9.459-9.443-5.224 0-9.459 4.227-9.459 9.443 0 5.215 4.235 9.443 9.459 9.443z" fill="#3F9AE9"/><path d="M122.023 547.694a3.15 3.15 0 0 0 3.153-3.148 3.151 3.151 0 0 0-3.153-3.148 3.151 3.151 0 0 0-3.153 3.148 3.15 3.15 0 0 0 3.153 3.148zM235.803 559.991c8.549 0 15.479-6.919 15.479-15.453 0-8.534-6.93-15.452-15.479-15.452-8.548 0-15.478 6.918-15.478 15.452 0 8.534 6.93 15.453 15.478 15.453z" fill="#151414"/><path d="M235.797 553.984c5.225 0 9.46-4.228 9.46-9.443 0-5.216-4.235-9.443-9.46-9.443-5.224 0-9.459 4.227-9.459 9.443 0 5.215 4.235 9.443 9.459 9.443z" fill="#3F9AE9"/><path d="M235.806 547.694a3.15 3.15 0 0 0 3.153-3.148 3.151 3.151 0 0 0-3.153-3.148 3.15 3.15 0 0 0-3.153 3.148 3.15 3.15 0 0 0 3.153 3.148z" fill="#151414"/><path d="M218.043 513.355s4.873 10.016 15.479 10.588c12.325.572 20.638 8.585 20.638 8.585s-3.153-8.299-11.179-12.591c-12.613-6.582-19.205-3.72-24.938-6.582z" fill="#8FC4F2"/></g><defs><clipPath id="a"><path fill="#fff" d="M0 0h1240v560H0z"/></clipPath></defs></svg>