<svg xmlns="http://www.w3.org/2000/svg" xmlns:xlink="http://www.w3.org/1999/xlink" id="Layer_1" data-name="Layer 1" viewBox="0 0 240 177"><defs><linearGradient id="linear-gradient" x1="119.97" x2="119.97" y1="11.42" y2="133.61" gradientUnits="userSpaceOnUse"><stop offset="0" stop-color="#cbe0f2"/><stop offset=".86" stop-color="#bdd7f0" stop-opacity="0"/></linearGradient><linearGradient id="linear-gradient-2" x1="120.18" x2="120.18" y1="104.11" y2="166.82" gradientUnits="userSpaceOnUse"><stop offset="0" stop-color="#f9d8d8"/><stop offset=".12" stop-color="#f9d8d8" stop-opacity=".98"/><stop offset=".24" stop-color="#f9d8d8" stop-opacity=".93"/><stop offset=".37" stop-color="#f9d8d8" stop-opacity=".84"/><stop offset=".51" stop-color="#f9d8d8" stop-opacity=".72"/><stop offset=".64" stop-color="#f9d8d8" stop-opacity=".56"/><stop offset=".78" stop-color="#f9d8d8" stop-opacity=".37"/><stop offset=".92" stop-color="#f9d8d8" stop-opacity=".15"/><stop offset="1" stop-color="#f9d8d8" stop-opacity="0"/></linearGradient><linearGradient id="linear-gradient-3" x1="85.9" x2="85.9" y1="-14.46" y2="84.78" gradientTransform="rotate(15.54 -9.102 49.28)" gradientUnits="userSpaceOnUse"><stop offset="0" stop-color="#242f65"/><stop offset=".33" stop-color="#273368"/><stop offset=".64" stop-color="#303e71"/><stop offset=".93" stop-color="#3e5181"/><stop offset="1" stop-color="#425685"/></linearGradient><linearGradient id="linear-gradient-4" x1="63.64" x2="78.18" y1="93.9" y2="93.9" gradientUnits="userSpaceOnUse"><stop offset=".11" stop-color="#5e8ec8"/><stop offset=".2" stop-color="#5e8ec8"/></linearGradient><linearGradient xlink:href="#linear-gradient-4" id="linear-gradient-5" x1="68.86" x2="73.01" y1="93.87" y2="93.87"/><linearGradient xlink:href="#linear-gradient-4" id="linear-gradient-6" x1="81.59" x2="85.74" y1="106.4" y2="106.4"/><linearGradient xlink:href="#linear-gradient-4" id="linear-gradient-7" x1="81.66" x2="96.2" y1="93.96" y2="93.96"/><linearGradient xlink:href="#linear-gradient-4" id="linear-gradient-8" x1="86.88" x2="91.02" y1="93.93" y2="93.93"/><linearGradient xlink:href="#linear-gradient-4" id="linear-gradient-9" x1="71.23" x2="88.81" y1="72.58" y2="72.58"/><linearGradient xlink:href="#linear-gradient-4" id="linear-gradient-10" x1="77.54" x2="82.56" y1="72.55" y2="72.55"/><linearGradient xlink:href="#linear-gradient-4" id="linear-gradient-11" x1="66.61" x2="84.21" y1="89.41" y2="89.41"/><linearGradient xlink:href="#linear-gradient-4" id="linear-gradient-12" x1="72.93" x2="77.95" y1="89.41" y2="89.41"/><linearGradient xlink:href="#linear-gradient-4" id="linear-gradient-13" x1="86.66" x2="91.68" y1="87.91" y2="87.91"/><linearGradient xlink:href="#linear-gradient-4" id="linear-gradient-14" x1="88.43" x2="98.86" y1="95.59" y2="95.59"/><linearGradient xlink:href="#linear-gradient-4" id="linear-gradient-15" x1="88.64" x2="106.22" y1="77.21" y2="77.21"/><linearGradient xlink:href="#linear-gradient-4" id="linear-gradient-16" x1="94.95" x2="99.96" y1="77.19" y2="77.19"/><linearGradient xlink:href="#linear-gradient-4" id="linear-gradient-17" x1="84.03" x2="101.67" y1="95.55" y2="95.55"/><linearGradient id="linear-gradient-18" x1="34.72" x2="60.26" y1="79.62" y2="79.62" gradientTransform="rotate(11.29 83.211 63.081)" gradientUnits="userSpaceOnUse"><stop offset=".52" stop-color="#aec8e6"/><stop offset=".7" stop-color="#aec8e6"/></linearGradient><linearGradient xlink:href="#linear-gradient-4" id="linear-gradient-19" x1="63.78" x2="85.38" y1="66.65" y2="66.65"/><linearGradient xlink:href="#linear-gradient-4" id="linear-gradient-20" x1="71.53" x2="77.7" y1="66.63" y2="66.63"/><linearGradient xlink:href="#linear-gradient-4" id="linear-gradient-21" x1="74.51" x2="80.67" y1="85.75" y2="85.75"/><linearGradient xlink:href="#linear-gradient-4" id="linear-gradient-22" x1="79.41" x2="101.01" y1="78.34" y2="78.34"/><linearGradient xlink:href="#linear-gradient-4" id="linear-gradient-23" x1="87.17" x2="93.33" y1="78.33" y2="78.33"/><linearGradient xlink:href="#linear-gradient-3" id="linear-gradient-24" x1="33.57" x2="136.23" y1="32.59" y2="32.59"/><linearGradient xlink:href="#linear-gradient-4" id="linear-gradient-25" x1="85.5" x2="107.06" y1="53.99" y2="53.99"/><linearGradient xlink:href="#linear-gradient-4" id="linear-gradient-26" x1="93.24" x2="99.4" y1="53.98" y2="53.98"/><linearGradient xlink:href="#linear-gradient-4" id="linear-gradient-27" x1="70.59" x2="92.2" y1="65.64" y2="65.64"/><linearGradient xlink:href="#linear-gradient-4" id="linear-gradient-28" x1="78.34" x2="84.49" y1="65.67" y2="65.67"/><linearGradient xlink:href="#linear-gradient-4" id="linear-gradient-29" x1="91.26" x2="97.41" y1="73.23" y2="73.23"/><linearGradient xlink:href="#linear-gradient-4" id="linear-gradient-30" x1="86.36" x2="99.24" y1="82.94" y2="82.94"/><linearGradient xlink:href="#linear-gradient-4" id="linear-gradient-31" x1="97.22" x2="118.93" y1="69.31" y2="69.31"/><linearGradient xlink:href="#linear-gradient-4" id="linear-gradient-32" x1="105.01" x2="111.21" y1="69.31" y2="69.31"/><linearGradient xlink:href="#linear-gradient-4" id="linear-gradient-33" x1="82.75" x2="104.37" y1="84.69" y2="84.69"/><linearGradient xlink:href="#linear-gradient-18" id="linear-gradient-34" x1="34.79" x2="86.04" y1="35.25" y2="35.25"/><linearGradient id="linear-gradient-35" x1="142.94" x2="140.73" y1="124.83" y2="145.91" gradientUnits="userSpaceOnUse"><stop offset="0" stop-color="#707fa3" stop-opacity="0"/><stop offset=".18" stop-color="#707fa3"/><stop offset=".51" stop-color="#7180a4" stop-opacity=".99"/><stop offset=".63" stop-color="#7483a7" stop-opacity=".95"/><stop offset=".72" stop-color="#7a89ab" stop-opacity=".87"/><stop offset=".79" stop-color="#8291b2" stop-opacity=".77"/><stop offset=".84" stop-color="#8c9cbb" stop-opacity=".63"/><stop offset=".9" stop-color="#99a9c6" stop-opacity=".47"/><stop offset=".94" stop-color="#a8b9d3" stop-opacity=".27"/><stop offset=".99" stop-color="#b9cbe2" stop-opacity=".04"/><stop offset=".99" stop-color="#bbcde4" stop-opacity=".01"/></linearGradient><linearGradient id="linear-gradient-36" x1="79.84" x2="100.67" y1="130.3" y2="130.3" gradientTransform="rotate(4.68 84.146 328.585)" gradientUnits="userSpaceOnUse"><stop offset=".08" stop-color="#f7b3b4"/><stop offset=".16" stop-color="#f7afb0"/><stop offset=".24" stop-color="#f6a2a3"/><stop offset=".33" stop-color="#f48e8f"/><stop offset=".35" stop-color="#f38687"/><stop offset=".79" stop-color="#f16b6c"/></linearGradient><linearGradient id="linear-gradient-37" x1="86.86" x2="181.41" y1="39.2" y2="133.75" gradientUnits="userSpaceOnUse"><stop offset=".3" stop-color="#f7b3b4"/><stop offset=".43" stop-color="#f7b1b2"/><stop offset=".51" stop-color="#f6a8a9"/><stop offset=".57" stop-color="#f59a9b"/><stop offset=".62" stop-color="#f38687"/><stop offset=".62" stop-color="#f38687"/><stop offset=".9" stop-color="#f2797a"/></linearGradient><linearGradient id="linear-gradient-38" x1="137.54" x2="137.54" y1="41.01" y2="143.85" gradientUnits="userSpaceOnUse"><stop offset="0" stop-color="#5e8ec8"/><stop offset=".52" stop-color="#425685"/></linearGradient><linearGradient id="linear-gradient-39" x1="97.75" x2="138.12" y1="64.73" y2="91.96" gradientUnits="userSpaceOnUse"><stop offset="0" stop-color="#f9d8d8" stop-opacity="0"/><stop offset=".01" stop-color="#f9d8d8" stop-opacity=".07"/><stop offset=".05" stop-color="#f9d8d8" stop-opacity=".23"/><stop offset=".08" stop-color="#f9d8d8" stop-opacity=".37"/><stop offset=".12" stop-color="#f9d8d8" stop-opacity=".49"/><stop offset=".16" stop-color="#f9d8d8" stop-opacity=".58"/><stop offset=".2" stop-color="#f9d8d8" stop-opacity=".64"/><stop offset=".25" stop-color="#f9d8d8" stop-opacity=".68"/><stop offset=".32" stop-color="#f9d8d8" stop-opacity=".69"/><stop offset=".41" stop-color="#f9d8d8" stop-opacity=".68"/><stop offset=".48" stop-color="#f9d8d8" stop-opacity=".64"/><stop offset=".55" stop-color="#f9d8d8" stop-opacity=".57"/><stop offset=".62" stop-color="#f9d8d8" stop-opacity=".47"/><stop offset=".68" stop-color="#f9d8d8" stop-opacity=".34"/><stop offset=".74" stop-color="#f9d8d8" stop-opacity=".18"/><stop offset=".8" stop-color="#f9d8d8" stop-opacity="0"/><stop offset=".81" stop-color="#f9d8d8" stop-opacity="0"/></linearGradient><linearGradient id="linear-gradient-40" x1="82.91" x2="101.35" y1="45.35" y2="63.8" gradientUnits="userSpaceOnUse"><stop offset=".36" stop-color="#f9d8d8"/><stop offset=".4" stop-color="#f9d8d8" stop-opacity=".98"/><stop offset=".43" stop-color="#f9d8d8" stop-opacity=".93"/><stop offset=".46" stop-color="#f9d8d8" stop-opacity=".84"/><stop offset=".5" stop-color="#f9d8d8" stop-opacity=".72"/><stop offset=".53" stop-color="#f9d8d8" stop-opacity=".56"/><stop offset=".57" stop-color="#f9d8d8" stop-opacity=".37"/><stop offset=".61" stop-color="#f9d8d8" stop-opacity=".15"/><stop offset=".63" stop-color="#f9d8d8" stop-opacity="0"/></linearGradient><linearGradient xlink:href="#linear-gradient-36" id="linear-gradient-41" x1="129.62" x2="162.44" y1="65.82" y2="65.82"/><linearGradient id="linear-gradient-42" x1="105.71" x2="105.71" y1="86.69" y2="123.82" gradientTransform="rotate(33.67 105.712 105.258)" gradientUnits="userSpaceOnUse"><stop offset=".08" stop-color="#f7b3b4"/><stop offset=".16" stop-color="#f7afb0"/><stop offset=".24" stop-color="#f6a2a3"/><stop offset=".33" stop-color="#f48e8f"/><stop offset=".35" stop-color="#f38687"/><stop offset=".67" stop-color="#ef4849"/><stop offset="1" stop-color="#f16b6c"/></linearGradient><linearGradient id="linear-gradient-43" x1="100.31" x2="100.31" y1="93.64" y2="122.01" gradientTransform="rotate(33.67 100.304 107.833)" gradientUnits="userSpaceOnUse"><stop offset=".28" stop-color="#f59b9c"/><stop offset=".52" stop-color="#f49495"/><stop offset=".78" stop-color="#f38687"/></linearGradient><linearGradient id="linear-gradient-44" x1="94.9" x2="94.9" y1="44.7" y2="67.69" gradientUnits="userSpaceOnUse"><stop offset="0" stop-color="#f16d6e"/><stop offset=".44" stop-color="#f38687"/><stop offset=".48" stop-color="#f48e8f"/><stop offset=".63" stop-color="#f6a2a3"/><stop offset=".78" stop-color="#f7afb0"/><stop offset=".92" stop-color="#f7b3b4"/></linearGradient><linearGradient id="linear-gradient-45" x1="113.56" x2="116.7" y1="74.88" y2="74.88" gradientTransform="rotate(67.6 115.71 75.34)" gradientUnits="userSpaceOnUse"><stop offset=".52" stop-color="#425685"/><stop offset=".72" stop-color="#425685"/></linearGradient><linearGradient xlink:href="#linear-gradient-45" id="linear-gradient-46" x1="97.55" x2="100.12" y1="72.61" y2="72.61" gradientTransform="rotate(67.61 98.837 72.615)"/><linearGradient xlink:href="#linear-gradient-44" id="linear-gradient-47" x1="130.59" x2="152.71" y1="66.46" y2="66.46"/><linearGradient xlink:href="#linear-gradient-38" id="linear-gradient-48" x1="125.97" x2="148.04" y1="47.32" y2="47.32"/><linearGradient id="linear-gradient-49" x1="160.42" x2="179.75" y1="128.15" y2="128.15" gradientUnits="userSpaceOnUse"><stop offset=".21" stop-color="#f16b6c"/><stop offset=".65" stop-color="#f38687"/></linearGradient><linearGradient id="linear-gradient-50" x1="129.62" x2="149.44" y1="53.59" y2="53.59" gradientUnits="userSpaceOnUse"><stop offset=".36" stop-color="#f9d8d8"/><stop offset=".44" stop-color="#f9d8d8" stop-opacity=".98"/><stop offset=".52" stop-color="#f9d8d8" stop-opacity=".93"/><stop offset=".6" stop-color="#f9d8d8" stop-opacity=".84"/><stop offset=".69" stop-color="#f9d8d8" stop-opacity=".72"/><stop offset=".77" stop-color="#f9d8d8" stop-opacity=".56"/><stop offset=".86" stop-color="#f9d8d8" stop-opacity=".37"/><stop offset=".95" stop-color="#f9d8d8" stop-opacity=".15"/><stop offset="1" stop-color="#f9d8d8" stop-opacity="0"/></linearGradient><linearGradient xlink:href="#linear-gradient-36" id="linear-gradient-51" x1="126.04" x2="148.82" y1="138.98" y2="138.98"/><linearGradient id="linear-gradient-52" x1="92.05" x2="95.78" y1="106.1" y2="106.1" gradientTransform="rotate(33.67 93.919 106.103)" gradientUnits="userSpaceOnUse"><stop offset=".69" stop-color="#4e6fa5"/><stop offset=".92" stop-color="#4e6fa5"/></linearGradient><linearGradient xlink:href="#linear-gradient-52" id="linear-gradient-53" x1="102.17" x2="105.91" y1="108.21" y2="108.21" gradientTransform="rotate(33.67 104.046 108.216)"/><linearGradient id="linear-gradient-54" x1="80.01" x2="86.63" y1="-43.38" y2="-23.77" gradientTransform="rotate(18.66 -123.028 154.608)" gradientUnits="userSpaceOnUse"><stop offset=".08" stop-color="#b5cdea"/><stop offset=".21" stop-color="#deebf9"/><stop offset=".6" stop-color="#a8c4e5"/></linearGradient><linearGradient id="linear-gradient-55" x1="78.01" x2="97.19" y1="-34.32" y2="-34.32" gradientTransform="rotate(90 73.63 29.03)" gradientUnits="userSpaceOnUse"><stop offset=".51" stop-color="#8bafd9"/><stop offset=".73" stop-color="#8bafd9"/></linearGradient><linearGradient id="linear-gradient-56" x1="80.17" x2="95.03" y1="-34.32" y2="-34.32" gradientTransform="rotate(90 73.63 29.03)" gradientUnits="userSpaceOnUse"><stop offset=".55" stop-color="#5d8fca"/><stop offset=".66" stop-color="#5d8fca"/></linearGradient><clipPath id="clip-path"><path d="M147.91 44.92s-9.45 2.26-19 5.28S111.94 32 111.94 32L146 21.42s2.66 18.14 1.91 23.5Z" style="fill:none"/></clipPath><style>.cls-10{fill:#fff}</style></defs><path d="M230 122.2c2.71-10.8-32.82-108.37-104.45-110.71-35-1.14-64 11.47-82.84 30.79C10.18 75.63 8 100 10.54 108.42c5.23 17.27 22.52 24.27 22.69 25.18 46.52.28 112.84-12.79 142.45-12.61a114.17 114.17 0 0 0 12.14.43c14.64 0 5.4-.34-14.84-6.28-14.2-4.14 57.02 7.38 57.02 7.06Z" style="fill:url(#linear-gradient)"/><path d="M10.54 108.33c-3.61.23 17 36.4 49.61 40.87 23.6 3.23 31.78 8.34 38 10.6a113.54 113.54 0 0 0 83-1.68c114.85-49.71 15.94-61.6-170.61-49.79Z" style="fill:url(#linear-gradient-2)"/><path d="m33.51 98 13.39 3.61a2.74 2.74 0 0 1 3.43-1.77 2.71 2.71 0 0 1 2 3.23l51.89 13.82a6 6 0 0 0 7.36-4l5-18.2L133.1 81.7h.05a6.37 6.37 0 0 0 .81-9L98.83 28.49a2.26 2.26 0 0 0-2.12-.9A3.12 3.12 0 0 1 94 22.35l-9.3-11.78a6.45 6.45 0 0 0-9-1.26L40.28 37a6.36 6.36 0 0 0-.83 9l2 2.55a5.89 5.89 0 0 0-1.3 2.27l-10.93 40A5.88 5.88 0 0 0 33.51 98ZM58 76.87a1.29 1.29 0 0 1-2.49-.67h-.06a1.27 1.27 0 0 1 1.61-.79 1.24 1.24 0 0 1 .94 1.46Zm.47-6.62a1 1 0 0 1 .24.11l.67.85a1.14 1.14 0 0 1 0 .55 1.27 1.27 0 0 1-1.57.86 1.25 1.25 0 0 1-.91-1.52 1.27 1.27 0 0 1 1.6-.8Zm6.82-21.38a1.36 1.36 0 0 1-.2 1.91 1.38 1.38 0 0 1-1.92-.27 1.34 1.34 0 0 1 .19-1.9l-.07-.09.1-.07a1.38 1.38 0 0 1 1.89.42ZM70 45a1.34 1.34 0 1 1-2 1.73A1.34 1.34 0 0 1 70 45Zm4.54-3.45a1.36 1.36 0 0 1-.19 1.91 1.42 1.42 0 0 1-1.78-.21 1.4 1.4 0 0 1 .05-2v-.06a1.37 1.37 0 0 1 1.91.38ZM79 38a1.33 1.33 0 1 1-2.11 1.63 1.35 1.35 0 0 1 .19-1.9A1.36 1.36 0 0 1 79 38Zm11.39-9a1.36 1.36 0 0 1 .18-1.92 1.38 1.38 0 0 1 1.92.27 1.36 1.36 0 0 1-.18 1.92 1.38 1.38 0 0 1-1.89-.27Zm-4.5 3.54a1.37 1.37 0 0 1 .19-1.91 1.38 1.38 0 0 1 1.93.28 1.34 1.34 0 0 1-.19 1.9 1.37 1.37 0 0 1-1.9-.24Zm-4.59 3.61a1.39 1.39 0 0 1 .31-1.95 1.38 1.38 0 0 1 1.94.3 1.4 1.4 0 1 1-2.27 1.64ZM54.13 81.3a1.24 1.24 0 1 1 .92 1.52 1.25 1.25 0 0 1-.92-1.52Zm-1.46 5.42h-.1v-.11a1.26 1.26 0 0 1 1.63-.72 1.24 1.24 0 1 1-.66 2.38 1.24 1.24 0 0 1-.87-1.55Zm-1.38 5.1a1.29 1.29 0 0 1 2.49.67 1.29 1.29 0 0 1-1.57.86 1.24 1.24 0 0 1-.92-1.53Zm-1.37 5.1a1.24 1.24 0 1 1 .91 1.52 1.24 1.24 0 0 1-.91-1.52Z" style="fill:url(#linear-gradient-3);isolation:isolate;opacity:.37"/><path d="m66.53 98.09 8.75.06v-8.46l-8.75-.06v8.45m-2.78-11.2 14.43.1-.09 14-14.45-.1Z" style="fill:url(#linear-gradient-4)"/><path d="m68.86 95.85 4.11.01.04-3.97-4.11-.01-.04 3.97z" style="fill:url(#linear-gradient-5)"/><path d="m81.59 108.38 4.11.01.04-3.97-4.11-.01-.04 3.97z" style="fill:url(#linear-gradient-6)"/><path d="m84.53 98.15 8.75.06.06-8.45-8.75-.06-.06 8.45m-2.78-11.21L96.2 87l-.09 14-14.45-.1Z" style="fill:url(#linear-gradient-7)"/><path d="m86.88 95.91 4.11.01.04-3.97-4.12-.01-.03 3.97z" style="fill:url(#linear-gradient-8)"/><path d="m57.66 52.58 9.88 1.4-15.05 45.29-8.92-5.84 14.09-40.85z" class="cls-10"/><path d="M49.52 98a2.66 2.66 0 0 1 2 3.19l51.36 13.68a5.91 5.91 0 0 0 7.29-4L121 71.26v-.05a5.83 5.83 0 0 0-4.29-7L66.87 50.92a2.06 2.06 0 0 0-2.05.5 2.73 2.73 0 0 1-2.81.76 2.69 2.69 0 0 1-2.07-3.1L46.7 45.51a5.88 5.88 0 0 0-7.29 4L28.58 89.08a5.82 5.82 0 0 0 4.27 7l13.25 3.65A2.73 2.73 0 0 1 49.5 98Zm12.11-44.46a1.26 1.26 0 0 1 .92 1.51 1.28 1.28 0 0 1-1.55.85 1.25 1.25 0 0 1-.92-1.51 1.27 1.27 0 0 1 1.55-.85Zm-2.93 5.9a1.26 1.26 0 0 1 1.57-.85 1.22 1.22 0 1 1-.66 2.35 1.24 1.24 0 0 1-.9-1.5Zm-1.38 5a1.26 1.26 0 0 1 1.58-.84h.1a1.28 1.28 0 1 1-1.61.84Zm-1.38 5a1.25 1.25 0 0 1 1.58-.78 1.24 1.24 0 0 1 .9 1.5 1.27 1.27 0 0 1-1.56.85 1.23 1.23 0 0 1-.89-1.5Zm-1.38 5a1.27 1.27 0 0 1 1.6-.78 1.23 1.23 0 0 1 .89 1.5 1.26 1.26 0 0 1-1.41.81 1.28 1.28 0 0 1-1.05-1.48Zm.16 4.18a1.23 1.23 0 0 1 .92 1.47 1.21 1.21 0 0 1-1.47.91 1.24 1.24 0 0 1-.9-1.5 1.23 1.23 0 0 1 1.45-.74Zm-3 6.22a.36.36 0 0 1 0-.11 1.26 1.26 0 0 1 1.61-.72 1.23 1.23 0 0 1 .9 1.5 1.27 1.27 0 0 1-1.56.85 1.22 1.22 0 0 1-.89-1.5ZM50.46 90a1.28 1.28 0 0 1 1.41-.82 1.29 1.29 0 0 1 1.05 1.48 1.27 1.27 0 0 1-1.56.85 1.25 1.25 0 0 1-.9-1.5Zm.1 4.17A1.23 1.23 0 0 1 50 96.6a1.23 1.23 0 0 1 .57-2.39Z" class="cls-10"/><path d="m74.71 75.52 8.45 2.28 2.2-8.17-8.45-2.28-2.2 8.16M74.87 64l13.94 3.76-3.64 13.43-13.94-3.76Z" style="fill:url(#linear-gradient-9)"/><path d="m77.54 73.94 3.97 1.05 1.05-3.83-3.98-1.05-1.04 3.83z" style="fill:url(#linear-gradient-10)"/><path d="m70.08 92.37 8.47 2.28 2.2-8.17-8.45-2.28-2.21 8.17m.15-11.55 14 3.71L80.57 98l-14-3.71Z" style="fill:url(#linear-gradient-11)"/><path d="m72.93 90.8 3.98 1.05 1.04-3.82-3.97-1.06-1.05 3.83z" style="fill:url(#linear-gradient-12)"/><path d="m86.66 89.29 3.98 1.06 1.04-3.83-3.97-1.06-1.05 3.83z" style="fill:url(#linear-gradient-13)"/><path d="m91.91 96.55 2.77.75.73-2.68-2.79-.76-.72 2.69m-1.31-6.08 8.27 2.24-2.15 8-8.28-2.24Z" style="fill:url(#linear-gradient-14)"/><path d="m92.11 80.14 8.45 2.28 2.2-8.15L94.31 72l-2.2 8.15m.16-11.55 14 3.77-3.63 13.46-14-3.76Z" style="fill:url(#linear-gradient-15)"/><path d="m94.95 78.57 3.97 1.06 1.04-3.83-3.97-1.06-1.04 3.83z" style="fill:url(#linear-gradient-16)"/><path d="m84.03 98.92 13.96 3.72 3.68-13.46-2.68-.72-2.95 10.8-11.28-3.01-.73 2.67z" style="fill:url(#linear-gradient-17)"/><path d="m62 52.18-.37 1.36a1.28 1.28 0 0 0-1.55.85A1.26 1.26 0 0 0 61 55.9l-.73 2.69a1.25 1.25 0 0 0-1.56.85 1.24 1.24 0 0 0 .9 1.5l-.73 2.7a1.26 1.26 0 0 0-1.58.84 1.28 1.28 0 0 0 .83 1.6h.06l-.7 2.6a1.25 1.25 0 0 0-1.58.78h.05a1.23 1.23 0 0 0 .89 1.5l-.73 2.7a1.26 1.26 0 0 0-1.59.78h.06a1.28 1.28 0 0 0 .97 1.56l-.75 2.77h-.09a1.23 1.23 0 0 0-1.46.88 1.24 1.24 0 0 0 .9 1.5l-.81 3a1.26 1.26 0 0 0-1.61.72.36.36 0 0 0 0 .11h.1a1.22 1.22 0 0 0 .89 1.5L52 89.27h-.12a1.28 1.28 0 0 0-1.41.82 1.25 1.25 0 0 0 .9 1.5l-.72 2.71-.09-.05A1.23 1.23 0 0 0 50 96.6l-.37 1.4h-.11a2.73 2.73 0 0 0-3.4 1.76l-13.27-3.6a5.82 5.82 0 0 1-4.27-7l10.83-39.67a5.88 5.88 0 0 1 7.29-4l13.24 3.57A2.7 2.7 0 0 0 62 52.18Z" style="fill:url(#linear-gradient-18)"/><path d="m68.05 67.46 7.58 5.7 5.51-7.32-7.57-5.71-5.51 7.32m4.82-11.54 12.5 9.41-9.1 12.07L63.78 68Z" style="fill:url(#linear-gradient-19)"/><path d="m71.53 67.02 3.58 2.66 2.59-3.43-3.57-2.66-2.6 3.43z" style="fill:url(#linear-gradient-20)"/><path d="m74.51 86.13 3.56 2.67 2.6-3.42-3.56-2.68-2.6 3.43z" style="fill:url(#linear-gradient-21)"/><path d="m83.68 79.14 7.57 5.7 5.51-7.31-7.57-5.7-5.51 7.31m4.83-11.55L101 77l-9.1 12.07-12.5-9.42Z" style="fill:url(#linear-gradient-22)"/><path d="m87.17 78.71 3.56 2.67 2.6-3.43-3.57-2.67-2.59 3.43z" style="fill:url(#linear-gradient-23)"/><path d="m89.76 22.14 7.69 7.61L55.09 59.4l-3.98-10.84 38.65-26.42z" class="cls-10"/><path d="M52.45 57.54a2.89 2.89 0 0 1-.32 4.08L88 106.7a6.38 6.38 0 0 0 8.91 1.24l35-27.43a6.3 6.3 0 0 0 .81-8.87L98 27.83a2.26 2.26 0 0 0-2.11-.89 2.94 2.94 0 0 1-2.94-1.15 2.91 2.91 0 0 1 .22-4l-9.26-11.7A6.38 6.38 0 0 0 75 8.85L40 36.28a6.32 6.32 0 0 0-.83 8.89l9.21 11.67a3 3 0 0 1 4.09.66Zm39.24-30.81a1.35 1.35 0 0 1-.17 1.9 1.37 1.37 0 0 1-1.9-.26 1.36 1.36 0 0 1 .17-1.91 1.37 1.37 0 0 1 1.9.27ZM85.34 30a1.36 1.36 0 0 1 1.91.28 1.34 1.34 0 0 1-.19 1.88 1.38 1.38 0 0 1-1.91-.26 1.34 1.34 0 0 1 .2-1.9Zm-4.46 3.49a1.37 1.37 0 0 1 1.92.3 1.39 1.39 0 1 1-1.94-.31ZM76.42 37a1.36 1.36 0 0 1 1.88.34 1.34 1.34 0 0 1-.19 1.89 1.36 1.36 0 0 1-1.9-.27 1.33 1.33 0 0 1 .23-1.96ZM72 40.45a1.36 1.36 0 0 1 1.89.36 1.33 1.33 0 0 1-.19 1.88 1.38 1.38 0 0 1-1.7-2.18Zm-2.6 3.74a1.33 1.33 0 0 1-2 1.72 1.33 1.33 0 0 1 2-1.71Zm-6.64 3.47.11-.07a1.35 1.35 0 0 1 1.86.42 1.33 1.33 0 0 1-.19 1.88 1.36 1.36 0 0 1-1.9-.26 1.35 1.35 0 0 1 .19-1.89Zm-4.37 3.58a1.4 1.4 0 0 1 1.76.21 1.3 1.3 0 1 1-1.95 1.7 1.36 1.36 0 0 1 .19-1.89Zm-2.61 3.7a1.33 1.33 0 0 1-2 1.72 1.34 1.34 0 0 1 .19-1.89 1.32 1.32 0 0 1 1.81.17Z" style="fill:url(#linear-gradient-24);isolation:isolate;opacity:.37"/><path d="M53.35 56.36a2.91 2.91 0 0 1-.35 4.08l35.82 45.08a6.4 6.4 0 0 0 8.92 1.25l35-27.44h.05a6.31 6.31 0 0 0 .81-8.87L98.84 26.65a2.25 2.25 0 0 0-2.11-.89A3.08 3.08 0 0 1 94 20.58L84.8 8.91a6.37 6.37 0 0 0-8.91-1.24l-35 27.43A6.31 6.31 0 0 0 40 44l9.21 11.67a3 3 0 0 1 4.09.66Zm39.24-30.81a1.34 1.34 0 0 1-.18 1.9 1.37 1.37 0 0 1-1.9-.26 1.36 1.36 0 0 1 .18-1.91 1.38 1.38 0 0 1 1.9.27Zm-6.36 3.23a1.36 1.36 0 0 1 1.91.28A1.34 1.34 0 0 1 88 31a1.36 1.36 0 0 1-1.9-.26 1.35 1.35 0 0 1 .19-1.89Zm-4.46 3.49a1.39 1.39 0 0 1 1.93.3 1.39 1.39 0 1 1-1.94-.31Zm-4.46 3.51a1.36 1.36 0 0 1 1.88.34 1.32 1.32 0 1 1-2.09 1.62 1.34 1.34 0 0 1 .19-1.88Zm-4.46 3.49a1.38 1.38 0 0 1 1.9.36 1.33 1.33 0 0 1-.19 1.88 1.38 1.38 0 0 1-1.76-.2 1.4 1.4 0 0 1 0-2ZM70.29 43a1.33 1.33 0 1 1-2 1.72 1.33 1.33 0 0 1 2-1.71Zm-6.63 3.47.1-.07a1.36 1.36 0 0 1 1.87.42 1.33 1.33 0 0 1-.19 1.88 1.36 1.36 0 0 1-1.9-.26 1.36 1.36 0 0 1 .19-1.89Zm-4.37 3.59A1.38 1.38 0 0 1 61 52.23a1.36 1.36 0 0 1-1.9-.23 1.35 1.35 0 0 1 .19-1.89Zm-2.61 3.69a1.33 1.33 0 0 1-2 1.72 1.33 1.33 0 0 1 2-1.71Z" class="cls-10"/><path d="m89.76 53.11 5.88 7.45 7.19-5.68L97 47.43l-7.23 5.67m7.6-9.93 9.69 12.28-11.87 9.36-9.69-12.28Z" style="fill:url(#linear-gradient-25)"/><path d="m93.24 53.57 2.78 3.48 3.38-2.65-2.78-3.49-3.38 2.66z" style="fill:url(#linear-gradient-26)"/><path d="m74.85 64.78 5.88 7.45 7.2-5.68-5.88-7.44-7.19 5.67m7.59-9.94 9.75 12.25-11.86 9.36-9.75-12.25Z" style="fill:url(#linear-gradient-27)"/><path d="m78.34 65.25 2.78 3.48 3.37-2.64-2.77-3.49-3.38 2.65z" style="fill:url(#linear-gradient-28)"/><path d="m91.25 72.82 2.77 3.48 3.39-2.65-2.77-3.49-3.39 2.66z" style="fill:url(#linear-gradient-29)"/><path d="m90.65 82.65 1.95 2.46 2.4-1.88-2-2.47-2.38 1.88m2.81-6.17 5.79 7.34-7.08 5.6-5.8-7.35Z" style="fill:url(#linear-gradient-30)"/><path d="m101.5 68.41 5.92 7.5 7.24-5.71-5.92-7.5-7.24 5.71m7.66-10 9.77 12.38-12 9.43-9.71-12.39Z" style="fill:url(#linear-gradient-31)"/><path d="m105.01 68.89 2.79 3.51 3.41-2.68-2.79-3.51-3.41 2.68z" style="fill:url(#linear-gradient-32)"/><path d="m82.75 79.49 9.73 12.25 11.89-9.32-1.86-2.36-9.54 7.48-7.86-9.9-2.36 1.85z" style="fill:url(#linear-gradient-33)"/><path d="m93.78 24.6-1.2.94a1.37 1.37 0 0 0-1.89-.26 1.35 1.35 0 0 0-.18 1.9l-2.37 1.87a1.38 1.38 0 0 0-1.91-.27 1.35 1.35 0 0 0-.19 1.89l-2.38 1.87a1.38 1.38 0 0 0-1.92-.29 1.39 1.39 0 0 0-.31 1.94l-2.29 1.8a1.36 1.36 0 0 0-1.88-.34 1.34 1.34 0 0 0-.19 1.88l-2.29 2.07a1.36 1.36 0 0 0-1.89-.36v.06a1.37 1.37 0 0 0-.11 1.85l-2.44 1.93v-.1a1.33 1.33 0 0 0-2 1.71l-2.64 2.09a1.36 1.36 0 0 0-1.87-.42l-.1.07.06.08a1.36 1.36 0 0 0-.19 1.89l-2.43 1.92s0-.08-.07-.12a1.38 1.38 0 0 0-1.76-.2 1.35 1.35 0 0 0-.25 2l-2.38 1.87v-.09a1.33 1.33 0 0 0-2 1.71l-1.24 1-.07-.11a3 3 0 0 0-4.09-.66L40 44a6.31 6.31 0 0 1 .83-8.89l35-27.43a6.37 6.37 0 0 1 8.97 1.23L94 20.58a2.92 2.92 0 0 0-.22 4.02Z" style="fill:url(#linear-gradient-34)"/><path d="M102.45 140.57a104.88 104.88 0 0 0 37.07 3.2c41.27-3.78 61.25-13.38 25.37-16.62s-74.3 3.92-62.44 13.42Z" style="fill:url(#linear-gradient-35)"/><path d="m96.6 123.59 1.5 11.29a3.78 3.78 0 0 0 2.47 3.06c2.88 1 8.12 2.43 12.91 1.48a3.77 3.77 0 0 0 3-3.39l.17-2s-16.97-14.81-20.05-10.44Z" style="fill:url(#linear-gradient-36)"/><path d="M90.84 68.24a68.14 68.14 0 0 1-8.39-17.07c-2.94-9.41 3.24-10.29 8.39-10.17s21.47 8.09 21.47 8.09 40.67-17 64.06 3.75 12.8 53.62 4.19 66.64l2.44 8.23a6 6 0 0 1-3.62 7.28A24.88 24.88 0 0 1 169 136a6 6 0 0 1-5-3.54l-3.48-7.91s-12.13 4.38-11.69 11.57-3.75 7.18-9.27 7.63-8.59-.82-11.69-5.08l-1.77-2.43s-20.44-2.2-29.56-11.47-18.65-28.15-5.7-56.53Z" style="fill:url(#linear-gradient-37)"/><g style="opacity:.07"><path d="m126.06 136.26 1.77 2.43c3.1 4.26 6.18 5.52 11.69 5.08s9.71-.45 9.27-7.63 11.69-11.57 11.69-11.57l3.48 7.91a6 6 0 0 0 5 3.54 24.88 24.88 0 0 0 10.41-1 6 6 0 0 0 3.62-7.28l-2.44-8.23c7.7-11.65 17-39.17 2.11-59.69 9.65 32.34-15.95 54.55-39.42 57.48s-42.94-6.23-42.94-6.23c-9.26-2.86-13.68-10.16-15.79-16a42.38 42.38 0 0 0 12 29.68c9.11 9.31 29.55 11.51 29.55 11.51Z" style="fill:url(#linear-gradient-38)"/></g><path d="M105.71 56.22s-19 12.68-11.8 37.85c0 0 10-2.64 15.71 7.56 0 0 23.14-8.21 37.43-23.25s-30.29-27.11-41.34-22.16Z" style="fill:url(#linear-gradient-39)"/><path d="M100.31 49C88.69 41 84.82 43.48 84 44.23c-1.42 1.47-1.92 4-.61 8.17a68.35 68.35 0 0 0 8.38 17.06C101.38 57.69 109 56.2 109 56.2Z" style="fill:url(#linear-gradient-40)"/><path d="M129.62 57.84s9.41-13.68 18.53-7.06a105 105 0 0 1 12.69 10.82 5.53 5.53 0 0 1 1.55 4.61c-.57 4.35-1.85 12.74-3.35 14.57-2.06 2.5-4.49 2.53-6.33 0s-7.35-18.38-23.09-22.94Z" style="fill:url(#linear-gradient-41)"/><ellipse cx="105.71" cy="105.26" rx="15.27" ry="19.85" style="fill:url(#linear-gradient-42)" transform="rotate(-33.67 105.72 105.257)"/><ellipse cx="100.31" cy="107.83" rx="11.19" ry="15.33" style="fill:url(#linear-gradient-43)" transform="rotate(-33.67 100.31 107.822)"/><path d="M105.71 56.22S92.4 42.39 85.93 45s6.18 22.65 6.18 22.65 6.62-9.37 13.6-11.43Z" style="fill:url(#linear-gradient-44)"/><ellipse cx="115.13" cy="74.88" rx="2.35" ry="1.39" style="fill:url(#linear-gradient-45)" transform="rotate(-67.61 115.13 74.882)"/><ellipse cx="98.83" cy="72.61" rx="2.35" ry=".99" style="fill:url(#linear-gradient-46)" transform="rotate(-67.61 98.837 72.613)"/><path d="M130.59 58.43s8.29-12.55 15.21-2.23 6.91 24.58 6.91 24.58-7.38-10.29-10.15-13.09-11.97-9.26-11.97-9.26Z" style="fill:url(#linear-gradient-47)"/><path d="M126.22 49.1a111 111 0 0 1 19.42-4.67 3.31 3.31 0 0 1 .77 0l1.48.17a.17.17 0 0 1 0 .33c-2.5.57-9.58 2.27-19 5.28a.86.86 0 0 1-.42 0l-2.19-.44a.35.35 0 0 1-.06-.67Z" style="fill:url(#linear-gradient-48)"/><path d="M176.68 120.16c-2.8.59-16.26 4.41-16.26 4.41l3.48 7.91a6 6 0 0 0 5 3.54 24.88 24.88 0 0 0 10.41-1c.15-.06.29-.11.43-.18-1.3-6.1-3.06-14.68-3.06-14.68Z" style="fill:url(#linear-gradient-49)"/><path d="M142.53 49c-7 .27-12.91 8.86-12.91 8.86l1.13.35c.77-1.06 4.17-5.46 7.91-6.06 0 0 3-.76 7.37 1.88 6.52 3.97 2.78-4.16-3.5-5.03Z" style="fill:url(#linear-gradient-50)"/><path d="M148.61 136.14a6 6 0 0 1 .21-2c-6.45 3.85-21.08 2.36-22.78 2.17.29.42.79 1.15 1.61 2.41 2.86 4.41 6.17 5.52 11.69 5.08s9.71-.48 9.27-7.66Z" style="fill:url(#linear-gradient-51)"/><ellipse cx="93.91" cy="106.1" rx="1.66" ry="2.27" style="fill:url(#linear-gradient-52)" transform="rotate(-33.67 93.92 106.105)"/><ellipse cx="104.04" cy="108.21" rx="1.66" ry="2.27" style="fill:url(#linear-gradient-53)" transform="matrix(.83 -.55 .55 .83 -42.54 75.84)"/><g style="clip-path:url(#clip-path)"><path d="M128.75 40.22c1.69-5 6.47-8 11.1-7.2a8.13 8.13 0 0 0-1.28-.56c-5-1.7-10.59 1.38-12.45 6.88s.71 11.32 5.73 13a9.29 9.29 0 0 0 1.36.33c-4.16-2.17-6.15-7.44-4.46-12.45Z" style="fill:url(#linear-gradient-54)"/><ellipse cx="136.98" cy="43" rx="10.5" ry="9.59" style="fill:url(#linear-gradient-55)" transform="rotate(-71.34 136.984 43.007)"/><ellipse cx="136.98" cy="43" rx="8.14" ry="7.43" style="opacity:.55;fill:url(#linear-gradient-56)" transform="rotate(-71.34 136.984 43.007)"/></g></svg>