<svg xmlns="http://www.w3.org/2000/svg" xmlns:xlink="http://www.w3.org/1999/xlink" id="Layer_1" data-name="Layer 1" viewBox="0 0 240 177"><defs><linearGradient id="linear-gradient" x1="120.78" x2="120.78" y1="-295.3" y2="-408.58" gradientTransform="matrix(1 0 0 -1 0 -278.22)" gradientUnits="userSpaceOnUse"><stop offset=".43" stop-color="#ffeded"/><stop offset=".45" stop-color="#fee"/><stop offset=".73" stop-color="#fffbfb"/><stop offset="1" stop-color="#fff"/></linearGradient><linearGradient id="linear-gradient-2" x1="10.92" x2="10.92" y1="-374.72" y2="-342.34" gradientTransform="matrix(-1.05 0 0 -1 81.04 -278.22)" gradientUnits="userSpaceOnUse"><stop offset="0" stop-color="#f7b3b4" stop-opacity="0"/><stop offset="1" stop-color="#f7b3b4" stop-opacity=".7"/></linearGradient><linearGradient id="linear-gradient-3" x1="1093.76" x2="1049.94" y1="-354.22" y2="-430.11" gradientTransform="rotate(180 596.155 -139.11)" gradientUnits="userSpaceOnUse"><stop offset=".17" stop-color="#242f65" stop-opacity="0"/><stop offset=".56" stop-color="#242f65" stop-opacity=".58"/><stop offset=".84" stop-color="#242f65"/></linearGradient><linearGradient id="linear-gradient-4" x1="1069.28" x2="1084.17" y1="-374.25" y2="-374.25" gradientTransform="rotate(180 596.155 -139.11)" gradientUnits="userSpaceOnUse"><stop offset=".25" stop-color="#7ea6d6"/><stop offset=".32" stop-color="#8db1db"/><stop offset=".55" stop-color="#b9d0eb"/><stop offset=".73" stop-color="#d4e4f5"/><stop offset=".84" stop-color="#deebf9"/><stop offset=".91" stop-color="#c9dbf0"/><stop offset=".96" stop-color="#bfd3eb"/></linearGradient><linearGradient id="linear-gradient-5" x1="1073.77" x2="1073.77" y1="-395.48" y2="-405.67" gradientTransform="rotate(180 596.155 -139.11)" gradientUnits="userSpaceOnUse"><stop offset="0" stop-color="#242f65"/><stop offset=".86" stop-color="#242f65" stop-opacity=".14"/><stop offset="1" stop-color="#242f65" stop-opacity="0"/></linearGradient><linearGradient id="linear-gradient-6" x1="37.94" x2="192.24" y1="-385.09" y2="-385.09" gradientTransform="matrix(1 0 0 -1 0 -278.22)" gradientUnits="userSpaceOnUse"><stop offset=".72" stop-color="#bdd8f2"/><stop offset=".92" stop-color="#9ebce0"/></linearGradient><linearGradient id="linear-gradient-7" x1="999.79" x2="1154.48" y1="-381.27" y2="-381.27" gradientTransform="rotate(180 596.155 -139.11)" gradientUnits="userSpaceOnUse"><stop offset=".09" stop-color="#cde2f5"/><stop offset=".45" stop-color="#e3edf7"/></linearGradient><linearGradient id="linear-gradient-8" x1="1123.57" x2="1147.04" y1="-379.53" y2="-379.53" gradientTransform="rotate(180 596.155 -139.11)" gradientUnits="userSpaceOnUse"><stop offset=".11" stop-color="#a5c1e2"/><stop offset=".37" stop-color="#d3e1f1"/></linearGradient><linearGradient id="linear-gradient-9" x1="1137.24" x2="1147.23" y1="-384.7" y2="-384.7" gradientTransform="rotate(180 596.155 -139.11)" gradientUnits="userSpaceOnUse"><stop offset=".01" stop-color="#a5c1e2"/><stop offset=".11" stop-color="#a5c1e2"/></linearGradient><linearGradient id="linear-gradient-10" x1="1146.58" x2="1153.07" y1="-389.99" y2="-389.99" gradientTransform="rotate(180 596.155 -139.11)" gradientUnits="userSpaceOnUse"><stop offset=".07" stop-color="#fedada"/><stop offset=".58" stop-color="#fcfcfd"/></linearGradient><linearGradient id="linear-gradient-11" x1="1032.5" x2="1032.5" y1="-378.78" y2="-383.24" gradientTransform="rotate(180 596.155 -139.11)" gradientUnits="userSpaceOnUse"><stop offset="0" stop-color="#5e90cc"/><stop offset=".91" stop-color="#5e90cc" stop-opacity=".09"/><stop offset="1" stop-color="#5e90cc" stop-opacity="0"/></linearGradient><linearGradient id="linear-gradient-12" x1="120.59" x2="120.59" y1="-406.8" y2="-453.94" gradientTransform="matrix(1 0 0 -1 0 -278.22)" gradientUnits="userSpaceOnUse"><stop offset="0" stop-color="#a3c0e3" stop-opacity=".8"/><stop offset="1" stop-color="#bdd8f2" stop-opacity=".1"/></linearGradient><linearGradient id="linear-gradient-13" x1="1.65" x2="106.9" y1="-404.57" y2="-404.57" gradientTransform="matrix(1 0 0 -1 0 -278.22)" gradientUnits="userSpaceOnUse"><stop offset="0" stop-color="#9dbbde"/><stop offset=".28" stop-color="#9dbbde"/><stop offset=".41" stop-color="#9dbbde"/></linearGradient><linearGradient id="linear-gradient-14" x1="1.18" x2="240" y1="-404.06" y2="-404.06" gradientTransform="matrix(1 0 0 -1 0 -278.22)" gradientUnits="userSpaceOnUse"><stop offset="0" stop-color="#fedada"/><stop offset=".91" stop-color="#fdb5b5"/></linearGradient><linearGradient id="linear-gradient-15" x1="156.53" x2="156.53" y1="-284.41" y2="-406.79" gradientTransform="matrix(1 0 0 -1 0 -278.22)" gradientUnits="userSpaceOnUse"><stop offset=".39" stop-color="#fedada"/><stop offset=".91" stop-color="#fdb5b5"/></linearGradient><linearGradient id="linear-gradient-16" x1="12.3" x2="35.8" y1="-389.66" y2="-366.17" gradientTransform="matrix(1 0 0 -1 0 -278.22)" gradientUnits="userSpaceOnUse"><stop offset=".5" stop-color="#fedada"/><stop offset="1" stop-color="#fedada" stop-opacity="0"/></linearGradient><linearGradient id="linear-gradient-17" x1="66.58" x2="119.66" y1="-386.98" y2="-333.91" gradientTransform="matrix(1 0 0 -1 0 -278.22)" gradientUnits="userSpaceOnUse"><stop offset=".44" stop-color="#fedada"/><stop offset=".76" stop-color="#fedada"/><stop offset="1" stop-color="#fecaca"/></linearGradient><linearGradient id="linear-gradient-18" x1="153.63" x2="153.63" y1="-422.98" y2="-445.46" gradientTransform="matrix(1 0 0 -1 0 -278.22)" gradientUnits="userSpaceOnUse"><stop offset=".22" stop-color="#fa6b6b"/><stop offset="1" stop-color="#fb8989"/></linearGradient><linearGradient id="linear-gradient-19" x1="153.55" x2="153.55" y1="-428.65" y2="-439.11" gradientTransform="matrix(1 .02 .02 -1 11.69 -288.2)" gradientUnits="userSpaceOnUse"><stop offset="0" stop-color="#252e65"/><stop offset="1" stop-color="#252e65" stop-opacity="0"/></linearGradient><linearGradient id="linear-gradient-20" x1="118.56" x2="130.15" y1="-402.03" y2="-390.45" gradientTransform="matrix(1 0 0 -1 0 -278.22)" gradientUnits="userSpaceOnUse"><stop offset=".17" stop-color="#fb8989"/><stop offset=".86" stop-color="#fdb5b5"/></linearGradient><linearGradient id="linear-gradient-21" x1="994.74" x2="1037.73" y1="-438.67" y2="-411.81" gradientTransform="matrix(-.94 .1 -.11 -.99 1048.19 -377.52)" gradientUnits="userSpaceOnUse"><stop offset=".37" stop-color="#ef4849"/><stop offset=".4" stop-color="#f05051"/><stop offset=".56" stop-color="#f27273"/><stop offset=".69" stop-color="#f38788"/><stop offset=".78" stop-color="#f48f90"/></linearGradient><linearGradient id="linear-gradient-22" x1="1030.76" x2="1031.44" y1="-393.57" y2="-394.55" gradientTransform="matrix(-.94 .1 -.11 -.99 1048.19 -377.52)" gradientUnits="userSpaceOnUse"><stop offset=".5" stop-color="#d7a990"/><stop offset=".76" stop-color="#b96039" stop-opacity="0"/></linearGradient><linearGradient id="linear-gradient-23" x1="126.37" x2="118.37" y1="-402.67" y2="-409.62" gradientTransform="matrix(1 0 0 -1 0 -278.22)" gradientUnits="userSpaceOnUse"><stop offset=".17" stop-color="#fb8989"/><stop offset=".39" stop-color="#fb8989"/><stop offset="1" stop-color="#fb8989" stop-opacity="0"/></linearGradient><linearGradient id="linear-gradient-24" x1="933.54" x2="1005.05" y1="-552.97" y2="-544.19" gradientTransform="matrix(-.95 -.04 .02 -1 1096.43 -356.69)" gradientUnits="userSpaceOnUse"><stop offset=".12" stop-color="#f79b4b"/><stop offset=".14" stop-color="#ec9148"/><stop offset=".21" stop-color="#d67b41"/><stop offset=".29" stop-color="#c56c3d"/><stop offset=".38" stop-color="#bc633a"/><stop offset=".5" stop-color="#b96039"/><stop offset=".58" stop-color="#bd6237"/><stop offset=".65" stop-color="#c8692f"/><stop offset=".68" stop-color="#ce6c2c"/><stop offset=".92" stop-color="#f6c18f"/><stop offset="1" stop-color="#f6c18f"/></linearGradient><linearGradient id="linear-gradient-25" x1="130.68" x2="155.83" y1="-433.58" y2="-433.58" gradientTransform="matrix(1 0 0 -1 0 -278.22)" gradientUnits="userSpaceOnUse"><stop offset=".08" stop-color="#fb8989"/><stop offset="1" stop-color="#fb8989"/></linearGradient><linearGradient id="linear-gradient-26" x1="132.78" x2="117.75" y1="-384.56" y2="-366.64" gradientTransform="matrix(1 0 0 -1 0 -278.22)" gradientUnits="userSpaceOnUse"><stop offset=".39" stop-color="#fa6b6b"/><stop offset=".48" stop-color="#f48f90"/><stop offset=".9" stop-color="#fbd9d9"/></linearGradient><linearGradient id="linear-gradient-27" x1="123.93" x2="117.27" y1="-385.07" y2="-374.81" gradientTransform="matrix(1 .02 .02 -1 11.69 -288.2)" gradientUnits="userSpaceOnUse"><stop offset="0" stop-color="#f16b6c" stop-opacity="0"/><stop offset=".35" stop-color="#f16b6c"/><stop offset="1" stop-color="#f16b6c" stop-opacity="0"/></linearGradient><linearGradient id="linear-gradient-28" x1="155.64" x2="155.64" y1="-310.46" y2="-420.44" gradientTransform="matrix(1 0 0 -1 0 -278.22)" gradientUnits="userSpaceOnUse"><stop offset=".55" stop-color="#5e90cc"/><stop offset=".77" stop-color="#7ea6d6"/></linearGradient><linearGradient id="linear-gradient-29" x1="181.13" x2="181.13" y1="-309.33" y2="-420.72" gradientTransform="matrix(1 0 0 -1 0 -278.22)" gradientUnits="userSpaceOnUse"><stop offset="0" stop-color="#7096c8"/><stop offset=".65" stop-color="#5475ab"/><stop offset="1" stop-color="#2b4681"/></linearGradient><linearGradient id="linear-gradient-30" x1="161.25" x2="162.31" y1="-311.4" y2="-311.4" gradientTransform="matrix(1 0 0 -1 0 -278.22)" gradientUnits="userSpaceOnUse"><stop offset=".15" stop-color="#5273a9"/><stop offset=".33" stop-color="#5273a9"/></linearGradient><linearGradient id="linear-gradient-31" x1="126.67" x2="126.67" y1="-322.53" y2="-327.15" gradientTransform="matrix(1 0 0 -1 0 -278.22)" gradientUnits="userSpaceOnUse"><stop offset="0" stop-color="#2b4681"/><stop offset=".07" stop-color="#5273a9"/><stop offset=".91" stop-color="#5273a9"/><stop offset="1" stop-color="#2b4681"/></linearGradient><linearGradient xlink:href="#linear-gradient-31" id="linear-gradient-32" x1="126.67" x2="126.67" y1="-330.95" y2="-339.41"/><linearGradient xlink:href="#linear-gradient-31" id="linear-gradient-33" x1="126.67" x2="126.67" y1="-341.72" y2="-350.17"/><linearGradient xlink:href="#linear-gradient-31" id="linear-gradient-34" x1="184.29" x2="184.29" y1="-333.75" y2="-347.35"/><linearGradient id="linear-gradient-35" x1="129.97" x2="129.97" y1="-309.33" y2="-420.72" gradientTransform="matrix(1 0 0 -1 0 -278.22)" gradientUnits="userSpaceOnUse"><stop offset=".12" stop-color="#5475ab"/><stop offset="1" stop-color="#2b4681"/></linearGradient><linearGradient id="linear-gradient-36" x1="114.64" x2="196.52" y1="-406" y2="-324.11" gradientTransform="matrix(1 0 0 -1 0 -278.22)" gradientUnits="userSpaceOnUse"><stop offset=".21" stop-color="#5883bb" stop-opacity=".2"/><stop offset=".68" stop-color="#5e8ec8"/><stop offset=".79" stop-color="#8d99c1"/><stop offset="1" stop-color="#f6b2b3"/></linearGradient><linearGradient id="linear-gradient-37" x1="155.78" x2="155.78" y1="-981.39" y2="-982.03" gradientTransform="matrix(1 0 0 -1.53 0 -1470.22)" gradientUnits="userSpaceOnUse"><stop offset=".26" stop-color="#4e6ea5"/><stop offset="1" stop-color="#2b4681"/></linearGradient><linearGradient xlink:href="#linear-gradient-37" id="linear-gradient-38" x1="155.5" x2="155.5" y1="-994.25" y2="-994.88" gradientTransform="matrix(1 0 0 1.4 0 1534.72)"/><linearGradient id="linear-gradient-39" x1="161.79" x2="201.73" y1="-406.79" y2="-406.79" gradientTransform="matrix(1 0 0 -1 0 -278.22)" gradientUnits="userSpaceOnUse"><stop offset=".72" stop-color="#fdb5b5"/><stop offset=".81" stop-color="#fdb5b5"/></linearGradient><linearGradient id="linear-gradient-40" x1="179.94" x2="206.4" y1="-389.52" y2="-395.15" gradientTransform="matrix(1 0 0 -1 0 -278.22)" gradientUnits="userSpaceOnUse"><stop offset="0" stop-color="#f16b6c" stop-opacity=".65"/><stop offset="1" stop-color="#f16b6c" stop-opacity="0"/></linearGradient><linearGradient id="linear-gradient-41" x1="156.12" x2="197.91" y1="-424.49" y2="-424.49" gradientTransform="matrix(1 0 0 -1 0 -278.22)" gradientUnits="userSpaceOnUse"><stop offset=".2" stop-color="#fb8989"/><stop offset="1" stop-color="#fa6b6b" stop-opacity=".1"/></linearGradient><linearGradient id="linear-gradient-42" x1="158.17" x2="158.17" y1="-307.07" y2="-449.54" gradientTransform="matrix(1 0 0 -1 0 -278.22)" gradientUnits="userSpaceOnUse"><stop offset=".7" stop-color="#fff" stop-opacity="0"/><stop offset=".96" stop-color="#fff"/></linearGradient><linearGradient id="linear-gradient-43" x1="140.13" x2="171.34" y1="74.09" y2="74.09" gradientUnits="userSpaceOnUse"><stop offset=".7" stop-color="#fdb5b5"/><stop offset=".91" stop-color="#fdb5b5"/></linearGradient><linearGradient id="linear-gradient-44" x1="133.6" x2="141.46" y1="99.81" y2="99.81" gradientUnits="userSpaceOnUse"><stop offset=".26" stop-color="#fedada"/><stop offset=".44" stop-color="#fedada"/><stop offset=".76" stop-color="#fedada"/></linearGradient><linearGradient xlink:href="#linear-gradient-44" id="linear-gradient-45" x1="151.62" x2="159.48" y1="86.02" y2="86.02"/><linearGradient xlink:href="#linear-gradient-44" id="linear-gradient-46" x1="151.62" x2="159.48" y1="99.81" y2="99.81"/><linearGradient xlink:href="#linear-gradient-44" id="linear-gradient-47" x1="160.63" x2="168.49" y1="99.81" y2="99.81"/><linearGradient xlink:href="#linear-gradient-44" id="linear-gradient-48" x1="160.63" x2="168.49" y1="106.7" y2="106.7"/><style>.cls-14{fill:#7ea6d6}.cls-27{fill:#fa6b6b}.cls-28{fill:#f7b3b4}.cls-32{fill:#fbd9d9}.cls-55{fill:#fff}</style></defs><path d="M1.65 130.35a53.43 53.43 0 0 0 10.75-19.87c3.64-13.65 3.27-31 11-32.67 19.63-4.43 15.51-60.74 69.91-60.74 38.23 0 50.29 21.19 54.12 36 1.59 6.22 23.56 3 48.14 25.14 0 0 23.84 46 44.31 50.48Z" style="fill:url(#linear-gradient)"/><path d="M35 81.57A7.61 7.61 0 0 1 41 74v-3a1.52 1.52 0 0 1 .47-1v-2.27a.52.52 0 0 1 .28-.47v-3a.32.32 0 0 1 .09-.19c.1 0 .1.09.1.19v3a.53.53 0 0 1 .28.47V70a1.51 1.51 0 0 1 .46 1v3a7.72 7.72 0 0 1 6 7.62h.84v3.86h2.33v-9.37h26.82v9.32L90 85V69.8h15v26.56H49.41v.19H34.18v-15Z" style="opacity:.74;fill:url(#linear-gradient-2);isolation:isolate"/><path d="M38.76 113.31a66.53 66.53 0 0 1 7.76-6.59c.09-.1.18-.1.28-.19.37-.28.84-.66 1.3-.94 1.78-1.23 3.65-2.45 5.8-3.77s4.77-2.73 7.38-4c13.09-6.4 30.85-6.87 30.85-6.87l96.87-.34a3.37 3.37 0 0 1 3.33 3.39v28.44a1 1 0 0 1-1 1l-144.88.28v.38a10.11 10.11 0 0 1-.93-2c-.19-.09-.28-.09-.38-.19H45l-.28-1.13c-3.93-1-5.8-2.64-6.45-3.86a.36.36 0 0 0-.09-.19 2 2 0 0 1-.19-1 2.76 2.76 0 0 1 .77-2.42Z" style="opacity:.34;fill:url(#linear-gradient-3);isolation:isolate"/><path d="M120 97.86h-8.8a3 3 0 0 1-3-3v-.66h14.86v.66a3.1 3.1 0 0 1-3.06 3Z" style="fill:url(#linear-gradient-4)"/><path d="M192.33 126a1 1 0 0 1-1 1l-139.55.37c-3.83 0-6.92-4.33-7-9.7l146.56-.56a1 1 0 0 1 1 1Z" style="opacity:.67;fill:url(#linear-gradient-5);isolation:isolate"/><path d="M38.94 113.31c.94-1 10-9.14 23.75-15.63s32.43-6.88 32.43-6.88l93-.37a4.16 4.16 0 0 1 4.12 4.14v22.79a2.09 2.09 0 0 1-2.06 2.07l-36.45.38v-1.42h-23.28v1.42l-65.45-.1a17.05 17.05 0 0 1-4.74 2.29l2.74 1.29c-16 .19-17.58-1.41-17.58-1.41l-.46-1.42c-9.57-2.54-6.86-6.12-6.02-7.15Z" style="fill:url(#linear-gradient-6)"/><path d="M38.57 117.07s7.48 3.3 26.08 1.42l127.87-.29-2.34 1.61-43.18.28v-1.41h-5.33v1.41h-2v-1.41h-8.47v1.41H65.3a11.66 11.66 0 0 1-3.55 2v1.41c-15.23.19-16.64-1.41-16.64-1.41l-.28-1c-4.3-1.22-5.89-2.92-6.45-4.14-.09-.06 0 .12.19.12Z" style="fill:#9ebce0"/><path d="M61.75 122.16v1.51c-15.14.18-16.64-1.42-16.64-1.42l-.28-1c1.22.25 5.24.75 16.92.91Z" style="fill:#425486"/><path d="M38.2 116.7a2.46 2.46 0 0 1-.28-1 16.42 16.42 0 0 0 2.52.19c3.18-.09 18.41-1.69 22.53-2 1.77-.09 113.94-.56 128.33-.56a1 1 0 0 1 1 1 1 1 0 0 1-1 1l-128 .47c.13.05-21.08 1.84-25.1.9Z" style="fill:#deebf9"/><path d="M41.19 115.85h-3.27c-.38-.94.46-2.35.74-2.82.85-1 9.54-9.14 22.62-15.64s30.85-6.87 30.85-6.87l96.93-.28a3.32 3.32 0 0 1 3.27 3.29V94l.19-.09s-97.21-.47-108.24 1c-8.32 1.13-26 8.47-35.89 16.1-5.39 4.28-7.2 4.84-7.2 4.84Z" style="fill:url(#linear-gradient-7)"/><path d="M45.3 107.47A76.91 76.91 0 0 1 58.48 99 70.68 70.68 0 0 1 67 95c.65.19 1.68.75 1.77 1.51.38 1.69-.65 2.35-9.53 6.87-7.96 4-10.24 4.47-13.94 4.09Z" style="fill:url(#linear-gradient-8)"/><path d="M45.11 107.56c.84-.66 2-1.5 3-2.26 2.44 0 5.15.1 7 .1-4.86 2.16-7.11 2.45-10 2.16Z" style="fill:url(#linear-gradient-9)"/><path d="m42.59 110.2 3.18-.09a52.26 52.26 0 0 1-5.24 3.2c-1.12.37-1.68-.28-.74-1.13a34.2 34.2 0 0 1 2.8-1.98Z" style="fill:url(#linear-gradient-10)"/><path d="M113.53 107.94H118a.2.2 0 0 0 .19-.19v-7.91a.21.21 0 0 0-.19-.19h-4.49a.2.2 0 0 0-.18.19v7.91a.2.2 0 0 0 .2.19ZM133.54 100.88h52.53v7.82h-52.53zM124.24 100.94h4.3v6.03h-4.3z" class="cls-14"/><path d="M133.54 105.02h52.53v-4.43h-52.53v4.43z" style="opacity:.76;fill:url(#linear-gradient-11);isolation:isolate"/><path d="M102 100.12s-27.76-.84-42.34 6l2.24 3.58s12.9-2.35 40-2.17v-7.44Z" class="cls-14"/><path d="M1.18 130.35S5.58 150 40.35 155.4s28.88 1.79 43.65 14.5 47.29 1.88 76-4.9 80-36.34 80-36.34Z" style="fill:url(#linear-gradient-12)"/><path d="M105.22 122.35H7.91c-4 5.46-6.26 8-6.26 8l105.25-.09q-.7-4.09-1.68-7.91Z" style="fill:url(#linear-gradient-13)"/><path d="m1.18 130.35 190.87-.35 47.95-1.44c-1.78-.47-9.35-4.42-11.78-6.68L8 121.31c-3 4.33-5.42 8.01-6.82 9.04Z" style="fill:url(#linear-gradient-14)"/><path d="M202.61 55.11c-38.88-79.47-70.94-38.23-109.17-38.23-9.54 0-13.93.47-20.29 3.49 8 3 22.25 9.13 37.95 30.41 22.81 30.7 29 72.42 29 72.42l99.83 5.36c-24.93-22.31-18.62-35.12-37.32-73.45Z" style="fill:url(#linear-gradient-15)"/><path d="m22.21 78.37 1.69-.28 1.58-.28v43.69h-3.36V78.37Z" style="fill:url(#linear-gradient-16)"/><path d="M1.65 130.35S14.46 124.8 17.73 95c4.2-4.52-8.7-14 5.7-17.23 19.63-4.43 15.51-60.74 69.91-60.74 38.23 0 50.29 21.19 54.12 36 1.59 6.22 23.56 3 48.14 25.14 0 0 23.84 46 44.31 50.48Z" style="fill:none"/><path d="M127.93 74.23c-5.24-10.92-11.69-21.28-20-30.13C92.5 27.71 82.88 22.25 75.77 19.33a40.87 40.87 0 0 0-4.3 1.6 41.88 41.88 0 0 1 7.67 3.49V59l-40.48.19-1.21 2.45 41.69-.28v60h3.36V61.42h34.21a130 130 0 0 1 19.72 57l3.65-.19a134.06 134.06 0 0 0-12.15-44ZM82.5 59V25.73a122 122 0 0 1 22.34 20 132.35 132.35 0 0 1 10.28 13.37H82.5Z" style="fill:url(#linear-gradient-17)"/><path d="M174.29 144.76a110.35 110.35 0 0 0-10.38 22.5h-16.07c-13-10-5.24-19.3-14.86-22.31 12.61 3.05 41.31-.19 41.31-.19Z" style="fill:url(#linear-gradient-18)"/><path d="m179.24 144.76 3.74.38s-4.2 5.46-20.09 8.09c-7.39 1.23-9.26 2.36-18.79-2.82-2.43-1.32-9-5.27-13.65-6.12a3.86 3.86 0 0 1-2-1.13c15 1.51 30.19 1.41 50.75 1.88a.14.14 0 1 0 .04-.28Z" style="fill:url(#linear-gradient-19)"/><path d="M126.62 108.69a28.52 28.52 0 0 0-5.51-1.5c-.94.09-2.15-.76-3.74.19-.94.47-.75.94-1.13 1.6-.74 1.13-1.49 1.88-1.49 3.86-.37.84 1.49 3.67 2.34 5.27s1.59.19 3 1.88a47.51 47.51 0 0 0 4.58 3.58l-.28 5.18 3.08 4 .09-20.81Z" style="fill:url(#linear-gradient-20)"/><path d="M124.28 141.75c-2-1.32-3.64-7.73-4.67-8.57-2.24-.85-2.62-3.11-2.71-4.81-.28-2.44.37-4 2.9-5a24.79 24.79 0 0 1 3.36-1c1.4-.47 3.83 1.6 4.11 4.52s.1 13.65.1 13.65-.75 2.73 3.18 3.67c3.55.85 6.16 4.15 12 7.44.37 2 3.83 8.67 9.35 15.54-.94-.66-8.79-8.29-11.5-13.47-1.31-2.44-2.15-5.65-3.08-6.78-.19-1.13-5.52-2.26-9.35-3.48a13.69 13.69 0 0 1-3.69-1.71Z" style="fill:url(#linear-gradient-21)"/><path d="M125.5 108.32s3.74 2.92-.66 7.53c-2.71 2.92-6.16.75-4 2l2.81 4.61a5.18 5.18 0 0 1 3.27 4.43c.28 2.16.56 5.46.56 5.46v-.94l.09-17.33s-.09-2.64-.18-3.11c-.58-2.09-.21-2.65-1.89-2.65Z" class="cls-27"/><path d="M123.07 122.54a2.92 2.92 0 0 0 .09 4.7c.56 1.42-2.52.85-3 1s-.75-.09-1-.94a3 3 0 0 1 .66-3.11 14.7 14.7 0 0 1 3.25-1.65Z" class="cls-28"/><path d="M123.63 122.35c.19.09 4.58 1.22 2.24 6.87 0 0-1 1.7-6.17 2 .94.94 2.06 4.33 2.9 5.46 1.22 1.79 2.24 2.07 4.11 1.13-.56.66-1.87 1.23-1.3 2.36.46.84 1.58 1.41 2.14 2.16-.74-1-.18-2.73-.18-4.05v-8.78c0-1.31.09-4.33-.38-5.46-.28-.56-.56-.19-.74-.75 0-.75-2.62-1.32-2.62-.94" style="fill:#ef4849"/><path d="M117.46 113c-.93.28 1.12 2.82 2.43 1.31-.84.1-2.34-.75-2.43-1.31" style="opacity:.39;fill:url(#linear-gradient-22);isolation:isolate"/><path d="M119.61 115.1a2.17 2.17 0 0 0 1.4-1.79c1.12-3.58 5.24-2.17 5.33-.94a4.13 4.13 0 0 1-1.31 3.2 4.6 4.6 0 0 1-5.33 1.6 4.89 4.89 0 0 1-3-2.64 3.86 3.86 0 0 0 3.83 1.6c-.74.38-2.24-.75-2.61-1.41a2.17 2.17 0 0 0 1.68.28" style="fill:#fb8989"/><path d="M125.59 109a4.4 4.4 0 0 0-4.3 2.07c-1.12 1.69-.28 3.58-.93 3.76s-2.25-.94-2.25-.94-1.49-5.27 3.65-5.46c1.24-.3 3.83.57 3.83.57Z" class="cls-32"/><path d="M117.65 131.48s4.2-1.88 5.14-1.41 4.76 1.69 4.67 2.64c-.47 5.83.47 10 2.15 9.7 1 .56.09 1.78 2.15 2.26a9.91 9.91 0 0 1 .75 2.63c.56 2.36 1.59 5.27 1.59 5.27l3.55 14.69-8.65-20.62a41.35 41.35 0 0 0-4-3.95c-1.68-1.32-2.71-3.77-3.27-4.71a22.11 22.11 0 0 0-4-6.5" class="cls-27"/><path d="M123.63 122.35c-.66 1.41.56 4.52-.84 5.84-1.12 1.13-3.18 2.73-4.58 3 .37.28 2 0 1.21 0 2.71 0 5-.57 6.17-1.6 2.53-2.36.75-6.69-2-7.25" style="fill:url(#linear-gradient-23)"/><path d="m133.82 145.14 1.77.75c-1.12-.38-2.33-.85-3.46-1.13Z" style="fill:url(#linear-gradient-24)"/><path d="M131.76 150.79c-.56-2.17-.65-5.18-1.12-7.35a37.72 37.72 0 0 1 14.21 9.42c3.64 3.76 6.73 11.39 10.93 14.4h-18.13a104.31 104.31 0 0 1-5.89-16.47Z" style="fill:url(#linear-gradient-25)"/><path d="M127.09 88.35a12.28 12.28 0 0 0-5.24-1.35c-2.24-.1-2-.1-2.52.09s-2.9 3.3-2.9 5.93c0 1-.09 1.32.56 2.17a29.4 29.4 0 0 0 5.7 5.18c3 1.69 2.15 2 2.15 2l2 7.44.46 1.13-.3-12.79c.09 0 3.55-4.05.09-9.8Z" style="fill:url(#linear-gradient-26)"/><path d="M119.24 90.24c-1 2.35-1.5 5 .37 7.15a9 9 0 0 0 5.42 2.83 3.33 3.33 0 0 1-2.34.09c2.53 1.51 3.84-.56 4.77-2.73 4.3-9.79-5.61-10.54-8.22-7.34" style="fill:url(#linear-gradient-27)"/><path d="M175.79 145.7h-40.48a8.61 8.61 0 0 1-8.6-8.66V37.5a8.61 8.61 0 0 1 8.6-8.66h40.48a8.6 8.6 0 0 1 8.59 8.66V137a8.6 8.6 0 0 1-8.59 8.7Z" style="fill:#242f65"/><path d="M175.69 32.23h-6v1.13a2.63 2.63 0 0 1-2.6 2.64h-22.9a2.62 2.62 0 0 1-2.61-2.64v-1.13h-6.08a5.05 5.05 0 0 0-5.05 5.09v99.81a5.05 5.05 0 0 0 5.05 5.09h40.29a5 5 0 0 0 5-5.09V37.32a5.25 5.25 0 0 0-5.1-5.09Z" style="fill:url(#linear-gradient-28)"/><path d="M179.62 142.5a.09.09 0 0 1-.1-.09c.94-.66 2.53-2.83 2.43-8.95-.09-6.59 0-96.24 0-96.24a8 8 0 0 0-2.71-6c-.09 0 0-.1.1-.1.84.38 2.9 1.7 3.36 5.18.56 4.33.28 97.37.28 97.37s.19 7.33-3.36 8.83Z" style="fill:url(#linear-gradient-29)"/><circle cx="161.77" cy="33.17" r=".56" style="fill:url(#linear-gradient-30)"/><path d="M126.34 44.28h.65v4.61h-.65z" style="fill:url(#linear-gradient-31)"/><path d="M126.34 52.76h.65v8.47h-.65z" style="fill:url(#linear-gradient-32)"/><path d="M126.34 63.49h.65v8.47h-.65z" style="fill:url(#linear-gradient-33)"/><path d="M184.1 55.49h.37v13.56h-.37z" style="fill:url(#linear-gradient-34)"/><path d="M131.48 142.5a.09.09 0 0 0 .09-.09c-.93-.66-2.52-2.83-2.43-8.95.1-6.59 0-96.24 0-96.24a8.08 8.08 0 0 1 2.71-6c.1 0 0-.1-.09-.1-.84.38-2.9 1.7-3.36 5.18-.56 4.33-.28 97.37-.28 97.37s-.19 7.33 3.36 8.83Z" style="fill:url(#linear-gradient-35)"/><path d="M176.07 145h-40.94a8.07 8.07 0 0 1-8-8.1v-100a8.07 8.07 0 0 1 8-8.1h40.94a8.06 8.06 0 0 1 8 8.1v100a8.18 8.18 0 0 1-8 8.1ZM135.13 29.31a7.53 7.53 0 0 0-7.48 7.54v100a7.52 7.52 0 0 0 7.48 7.53h40.94a7.52 7.52 0 0 0 7.47-7.53v-100a7.52 7.52 0 0 0-7.47-7.54Z" style="fill:url(#linear-gradient-36)"/><path d="M133.63 30.54h44.31s-1.87-1-23.75-.95c-17.66 0-20.56.95-20.56.95Z" style="fill:url(#linear-gradient-37)"/><path d="M133.35 143h44.31s-1.87.94-23.75.85c-17.66-.03-20.56-.85-20.56-.85Z" style="opacity:.42;fill:url(#linear-gradient-38);isolation:isolate"/><path d="M163.91 167.26c-4.39-5.83-1.49-11.3 2.9-17.13 2.71-3.77 12.71-14.13 16.27-17.14a29.34 29.34 0 0 1 2.71-2.07c.56-.38.46-.38.46-.38 0-2 .1-5.08.19-7.63.09-2.16.09-4.33.09-6.49s.29-5.94.29-5.94c-2.9-6-3.18-8.1-3.65-11.58-.37-2.82.47-9 4.49-9 1.77.38 2.33 2 2.8 3.58a33.16 33.16 0 0 0 2.62 6.59 37.82 37.82 0 0 0 3.08 4.52 15.78 15.78 0 0 1 2.71 4c1.22 4.05.56 8.29.84 12.43.28 4 1.22 7.82 1.59 11.77.38 3.67.19 7.44-1.59 10.74a15 15 0 0 1-1.68 2.63 12.85 12.85 0 0 0-1.21 2.54c-.75 1.79-1.59 3.58-2.34 5.28-1 2.35-6.26 10.83-7.29 13.18h-23.28Z" style="fill:url(#linear-gradient-39)"/><path d="m192.7 98.43-3 .47s-.56.66-1.21-.56-1.22-7.63-1.22-7.63 1.69-1.13 2.71-.38a69.94 69.94 0 0 0 2.72 8.1Z" class="cls-32"/><path d="M192.7 98.43c.38.85 1.41 3.2 2.25 3.86a10.85 10.85 0 0 1 2.8 4 41.77 41.77 0 0 1-6.82-4.24c-2-1.69-1.59-3-1.59-3Z" class="cls-28"/><path d="M186.35 90.14s-1.31 3.77-.19 6.78 8.88 11.4 9.25 13.56-2.8 13.47 2.72 19.78c0 0 4.29 8.47 3.64 8.19-12-5.74-15.52-8-15.52-8l.38-15.64.28-4.33s-7.91-15.06-.56-20.34Z" style="fill:url(#linear-gradient-40)"/><path d="M198.31 113.78c0-.38.19-1-.09-1.41s-.94-.38-1.31-.57a5.69 5.69 0 0 1 2.15.28 3.46 3.46 0 0 0-2.52-1.69c-.85-.19-2.43-.19-3-.94 1 0 2.14 0 3.17-.1a3.44 3.44 0 0 1 2 .1c-.28-.57-.38-1.32-.66-1.89s-.47-1.6-1-2l.38-.1a24.62 24.62 0 0 1 2.05 3.11c1.59 4.8 0 10.45 1.41 16.1.09 1.6.46 3.86.84 6.22a.09.09 0 0 1-.1.09 4.2 4.2 0 0 1-.28-.94 56.93 56.93 0 0 1-2.05-6.78 47.08 47.08 0 0 1-.75-5.27 22 22 0 0 1-.24-4.21Z" style="fill:#fedada;opacity:.25;isolation:isolate"/><path d="M186.53 125.36c-.93 3.39 8.7 7.63 11.22 10.45a31.72 31.72 0 0 1-10.65-3.1c1.21 2 2.71 4.23 10.84 7.72-9 3.76-18.6 18.83-19 26.74h-22.32c-3.27-6.87 14.21-21.85 20-28a67.08 67.08 0 0 1 9.72-8.75c.18-.19.09-4.15.18-5.09" style="fill:url(#linear-gradient-41)"/><path d="M201.68 137.6a27.5 27.5 0 0 0-.1-4.8c-.09-.85-.18-1.69-.28-2.45a3.53 3.53 0 0 0 .28.85.09.09 0 0 1 .1-.09c-.38-2.36-.75-4.62-.84-6.22-1.41-5.65.18-11.3-1.41-16.1a29 29 0 0 0-1.87-2.92 11.09 11.09 0 0 0-2.52-3.49c-.84-.65-1.87-2.91-2.24-3.86a67.67 67.67 0 0 1-2.71-8.09 1.82 1.82 0 0 0-1.41-.19 2.09 2.09 0 0 0-.84-.29 3.81 3.81 0 0 0-1.49.29s-.1 0-.1.09a4.1 4.1 0 0 0-1.87 1.88V37.5a8.78 8.78 0 0 0-3.27-6.78 8.18 8.18 0 0 0-5.11-1.88h-40.87a8.51 8.51 0 0 0-4.58 1.41 8.73 8.73 0 0 0-3.84 7.25v6.88h-.37V49h.37v3.77h-.37v8.47h.37v2.26h-.37V72h.37v16.2a10.93 10.93 0 0 0-4.86-1.2c-2.24-.1-2-.1-2.52.09s-2.9 3.3-2.9 5.93c0 1-.09 1.32.56 2.17a29.4 29.4 0 0 0 5.7 5.18c3 1.69 2.15 2 2.15 2l1.59 6.22a2.51 2.51 0 0 0-1-.19c-.85-.28-2.34-.66-4.49-1.13-.94.1-2.15-.75-3.74.19-.94.47-.75.94-1.12 1.6-.75 1.13-1.5 1.88-1.5 3.86-.37.85 1.5 3.67 2.34 5.27s1.59.19 3 1.89a26.11 26.11 0 0 0 3 2.45 20.93 20.93 0 0 0-3.36 1c-2.53.94-3.18 2.54-2.9 5a7.35 7.35 0 0 0 .84 3 3 3 0 0 0 .84 1 23.3 23.3 0 0 1 3.09 5.37c.65.94 1.58 3.39 3.27 4.71a41.35 41.35 0 0 1 4 3.95l8.69 20.91c.75 2.45.09 2.07.93 3.76l48.89-.28c1-2.45 6.26-14.59 7.29-16.95.75-1.79 1.59-3.58 2.34-5.27a12.34 12.34 0 0 1 1.21-2.54 19.36 19.36 0 0 0 1.68-2.64 16.41 16.41 0 0 0 1.59-5.18.32.32 0 0 1 .19.09c.49.08.35-.29.17-.86Zm-17.3-5.74v-27.4c.29.94.75 2 1.31 3.29a25.93 25.93 0 0 0 1.22 2.73l-.19 3.2-.09 1.13-.38 15.64a2.05 2.05 0 0 0-.46.37 12.72 12.72 0 0 1-1.41 1.04Zm8.14-33.34Z" style="fill:url(#linear-gradient-42)"/><path d="M138.49 55.58h-2.43v-1.31c2.06 0 2.52-.57 2.52-2H140V64h-1.5v-8.42ZM143 60.86h1.59c.09 1.13 1 1.79 2.33 1.79a2.43 2.43 0 0 0 2.53-2.73 2.36 2.36 0 0 0-2.34-2.64 2.41 2.41 0 0 0-2.52 1.51h-1.31v-6.5h7v1.41h-5.61v3.58a3.11 3.11 0 0 1 2.71-1.22c2.24 0 3.65 1.5 3.65 3.86a3.92 3.92 0 0 1-4 4.14c-2.28 0-3.87-1.32-4.03-3.2ZM152.89 57.09a1.22 1.22 0 1 1 2.43 0 1.22 1.22 0 1 1-2.43 0Zm0 5.65a1.22 1.22 0 1 1 2.43 0 1.22 1.22 0 1 1-2.43 0ZM157.28 60.2h1.59a2.31 2.31 0 0 0 2.52 2.54 2.13 2.13 0 0 0 2.34-2.16c0-1.42-.84-2.17-2.43-2.17h-.84v-1.32h.84c1.4 0 2.15-.66 2.15-2a1.9 1.9 0 0 0-2.15-1.88 2.13 2.13 0 0 0-2.3 2.19h-1.49c0-2.17 1.49-3.49 3.83-3.49S165 53.14 165 55a2.45 2.45 0 0 1-2.15 2.54 2.69 2.69 0 0 1 2.33 2.83c0 2.07-1.59 3.48-3.92 3.48-2.49.21-3.98-1.2-3.98-3.65ZM167.19 60.86h1.59c.09 1.13 1 1.79 2.33 1.79a2.43 2.43 0 0 0 2.53-2.73 2.36 2.36 0 0 0-2.34-2.64 2.41 2.41 0 0 0-2.52 1.51h-1.41v-6.5h7v1.41h-5.6v3.58a3.1 3.1 0 0 1 2.71-1.22c2.24 0 3.64 1.5 3.64 3.86a3.92 3.92 0 0 1-4 4.14 3.66 3.66 0 0 1-3.93-3.2Z" class="cls-55"/><path d="M140.13 72.65h31.21v2.88h-31.21z" style="fill:url(#linear-gradient-43)"/><path d="M133.6 82.94h7.87v6.15h-7.87zM133.6 89.83h7.87v6.15h-7.87z" class="cls-55"/><path d="M133.6 96.73h7.87v6.15h-7.87z" style="fill:url(#linear-gradient-44)"/><path d="M133.6 103.62h7.87v6.15h-7.87zM142.61 82.94h7.87v6.15h-7.87zM142.61 89.83h7.87v6.15h-7.87zM142.61 96.73h7.87v6.15h-7.87zM142.61 103.62h7.87v6.15h-7.87z" class="cls-55"/><path d="M151.62 82.94h7.87v6.15h-7.87z" style="fill:url(#linear-gradient-45)"/><path d="M151.62 89.83h7.87v6.15h-7.87z" class="cls-55"/><path d="M151.62 96.73h7.87v6.15h-7.87z" style="fill:url(#linear-gradient-46)"/><path d="M151.62 103.62h7.87v6.15h-7.87zM160.63 82.94h7.87v6.15h-7.87zM160.63 89.83h7.87v6.15h-7.87z" class="cls-55"/><path d="M160.63 96.73h7.87v6.15h-7.87z" style="fill:url(#linear-gradient-47)"/><path d="M160.63 103.62h7.87v6.15h-7.87z" style="fill:url(#linear-gradient-48)"/><path d="M169.63 82.94h7.87v6.15h-7.87zM169.63 89.83h7.87v6.15h-7.87zM169.63 96.73h7.87v6.15h-7.87zM169.63 103.62h7.87v6.15h-7.87z" class="cls-55"/></svg>