<svg xmlns="http://www.w3.org/2000/svg" xmlns:xlink="http://www.w3.org/1999/xlink" id="Layer_1" data-name="Layer 1" viewBox="0 0 240 177"><defs><linearGradient id="linear-gradient" x1="120" x2="120" y1="33.34" y2="156.54" gradientUnits="userSpaceOnUse"><stop offset="0" stop-color="#cbe0f2"/><stop offset="1" stop-color="#bdd7f0" stop-opacity="0"/></linearGradient><linearGradient id="linear-gradient-2" x1="98.77" x2="98.77" y1="70.86" y2="109.75" gradientTransform="translate(21.23 66.25)" gradientUnits="userSpaceOnUse"><stop offset=".37" stop-color="#bdd7f0"/><stop offset="1" stop-color="#bdd7f0" stop-opacity="0"/></linearGradient><linearGradient id="linear-gradient-3" x1="60.43" x2="60.43" y1="66.25" y2="109.75" gradientTransform="translate(21.23 66.25)" gradientUnits="userSpaceOnUse"><stop offset=".65" stop-color="#fff" stop-opacity="0"/><stop offset=".86" stop-color="#fff" stop-opacity=".7"/></linearGradient><linearGradient id="linear-gradient-4" x1="313.99" x2="313.99" y1="185.31" y2="183.01" gradientTransform="matrix(55.84 0 0 -9.17 -17456.77 1834.68)" gradientUnits="userSpaceOnUse"><stop offset=".32" stop-color="#425586"/><stop offset="1" stop-color="#7da5d4"/></linearGradient><linearGradient id="linear-gradient-5" x1="312.36" x2="314.79" y1="192.85" y2="192.85" gradientTransform="matrix(49.86 0 0 -21.33 -15546.29 4239.57)" gradientUnits="userSpaceOnUse"><stop offset=".32" stop-color="#fbd9d9"/><stop offset=".53" stop-color="#f38888"/></linearGradient><linearGradient xlink:href="#linear-gradient-5" id="linear-gradient-6" x1="312.37" x2="314.79" y1="192.85" y2="192.85" gradientTransform="matrix(49.92 0 0 -21.33 -15566.27 4239.58)"/><linearGradient id="linear-gradient-7" x1="289.49" x2="291.91" y1="191.84" y2="191.84" gradientTransform="matrix(10.3 0 0 -17.88 -2955.51 3554.06)" gradientUnits="userSpaceOnUse"><stop offset=".53" stop-color="#f59697"/><stop offset=".72" stop-color="#f59697"/></linearGradient><linearGradient id="linear-gradient-8" x1="296.69" x2="298.3" y1="185.22" y2="184.64" gradientTransform="matrix(13.32 0 0 -8.44 -3912.36 1676.27)" gradientUnits="userSpaceOnUse"><stop offset=".32" stop-color="#425586"/><stop offset=".45" stop-color="#7da5d4"/></linearGradient><linearGradient id="linear-gradient-9" x1="160.67" x2="160.67" y1="105.71" y2="103.42" gradientTransform="matrix(1.81 0 0 -1.31 -243.15 268.78)" gradientUnits="userSpaceOnUse"><stop offset=".22" stop-color="#cacedc"/><stop offset=".72" stop-color="#a1a8c2"/></linearGradient><linearGradient id="linear-gradient-10" x1="300.87" x2="300.87" y1="134.93" y2="132.63" gradientTransform="matrix(15.87 0 0 -2.03 -4726.75 417.3)" gradientUnits="userSpaceOnUse"><stop offset="0" stop-color="#5e8eca"/><stop offset=".03" stop-color="#5c8bc6"/><stop offset=".27" stop-color="#5174a9"/><stop offset=".52" stop-color="#496495"/><stop offset=".76" stop-color="#445989"/><stop offset="1" stop-color="#425685"/></linearGradient><linearGradient id="linear-gradient-11" x1="309.36" x2="311.78" y1="179.6" y2="179.6" gradientTransform="matrix(30.75 0 0 -6.25 -9448.89 1245.58)" gradientUnits="userSpaceOnUse"><stop offset="0" stop-color="#707fa3" stop-opacity="0"/><stop offset=".61" stop-color="#707fa3"/></linearGradient><linearGradient xlink:href="#linear-gradient-9" id="linear-gradient-12" x1="49.76" x2="49.76" y1="111.2" y2="108.89" gradientTransform="matrix(1.1 0 0 -1.39 -23.01 284.76)"/><linearGradient id="linear-gradient-13" x1="310.48" x2="312.91" y1="177.76" y2="177.76" gradientTransform="matrix(35.27 0 0 -6.25 -10888.32 1253.6)" gradientUnits="userSpaceOnUse"><stop offset=".16" stop-color="#425586"/><stop offset=".94" stop-color="#707fa3"/></linearGradient><linearGradient id="linear-gradient-14" x1="134.95" x2="186.84" y1="111.98" y2="111.98" gradientTransform="rotate(-.09 25070.104 -16220.487)" gradientUnits="userSpaceOnUse"><stop offset="0" stop-color="#425585" stop-opacity="0"/><stop offset=".01" stop-color="#425585" stop-opacity=".11"/><stop offset=".04" stop-color="#425585" stop-opacity=".35"/><stop offset=".07" stop-color="#425585" stop-opacity=".55"/><stop offset=".11" stop-color="#425585" stop-opacity=".72"/><stop offset=".15" stop-color="#425585" stop-opacity=".85"/><stop offset=".21" stop-color="#425585" stop-opacity=".93"/><stop offset=".28" stop-color="#425585" stop-opacity=".99"/><stop offset=".49" stop-color="#425585"/><stop offset=".71" stop-color="#425585" stop-opacity=".99"/><stop offset=".79" stop-color="#425585" stop-opacity=".93"/><stop offset=".84" stop-color="#425585" stop-opacity=".85"/><stop offset=".89" stop-color="#425585" stop-opacity=".72"/><stop offset=".92" stop-color="#425585" stop-opacity=".55"/><stop offset=".96" stop-color="#425585" stop-opacity=".35"/><stop offset=".99" stop-color="#425585" stop-opacity=".11"/><stop offset="1" stop-color="#425585" stop-opacity="0"/></linearGradient><linearGradient id="linear-gradient-15" x1="143.86" x2="178.72" y1="110.25" y2="110.25" gradientTransform="translate(25.69 39.09)" gradientUnits="userSpaceOnUse"><stop offset="0" stop-color="#242f65" stop-opacity="0"/><stop offset=".22" stop-color="#242f65"/><stop offset=".95" stop-color="#242f65"/><stop offset=".96" stop-color="#242f65"/></linearGradient><linearGradient id="linear-gradient-16" x1="180.51" x2="180.51" y1="108.59" y2="112.57" gradientTransform="translate(25.69 39.06)" gradientUnits="userSpaceOnUse"><stop offset=".04" stop-color="#242f65"/><stop offset=".05" stop-color="#242f65"/><stop offset=".78" stop-color="#242f65"/><stop offset="1" stop-color="#242f65" stop-opacity="0"/></linearGradient><linearGradient xlink:href="#linear-gradient-16" id="linear-gradient-17" x1="141.33" x2="141.33" y1="108.59" y2="112.57" gradientTransform="translate(25.69 39.12)"/><linearGradient id="linear-gradient-18" x1="161.57" x2="161.57" y1="72.79" y2="97.14" gradientTransform="rotate(-.09 25070.104 -16220.487)" gradientUnits="userSpaceOnUse"><stop offset="0" stop-color="#acceef" stop-opacity=".8"/><stop offset=".1" stop-color="#acceef" stop-opacity=".76"/><stop offset=".27" stop-color="#acceef" stop-opacity=".67"/><stop offset=".48" stop-color="#acceef" stop-opacity=".5"/><stop offset=".73" stop-color="#acceef" stop-opacity=".28"/><stop offset="1" stop-color="#acceef" stop-opacity="0"/></linearGradient><linearGradient id="linear-gradient-19" x1="161.5" x2="161.5" y1="53.16" y2="92.15" gradientTransform="rotate(-.09 25070.104 -16220.487)" gradientUnits="userSpaceOnUse"><stop offset="0" stop-color="#5e8fca"/><stop offset=".88" stop-color="#425585"/></linearGradient><linearGradient id="linear-gradient-20" x1="161.5" x2="161.5" y1="55.25" y2="83.99" gradientTransform="rotate(-.09 25070.104 -16220.487)" gradientUnits="userSpaceOnUse"><stop offset=".29" stop-color="#7da5d4"/><stop offset=".6" stop-color="#5e8fca"/><stop offset=".99" stop-color="#425585"/></linearGradient><linearGradient id="linear-gradient-21" x1="161.5" x2="161.5" y1="93.4" y2="110.08" gradientTransform="rotate(-.09 25070.104 -16220.487)" gradientUnits="userSpaceOnUse"><stop offset=".63" stop-color="#cde2f5"/><stop offset="1" stop-color="#9ebce0"/></linearGradient><linearGradient id="linear-gradient-22" x1="161.22" x2="161.22" y1="47.96" y2="112.57" gradientTransform="rotate(-.09 25070.104 -16220.487)" gradientUnits="userSpaceOnUse"><stop offset=".82" stop-color="#252e65" stop-opacity="0"/><stop offset=".85" stop-color="#252e65" stop-opacity=".03"/><stop offset=".87" stop-color="#252e65" stop-opacity=".12"/><stop offset=".89" stop-color="#252e65" stop-opacity=".27"/><stop offset=".9" stop-color="#252e65" stop-opacity=".48"/><stop offset=".92" stop-color="#252e65" stop-opacity=".76"/><stop offset=".93" stop-color="#252e65"/></linearGradient><linearGradient id="linear-gradient-23" x1="161.5" x2="161.5" y1="45.78" y2="48.18" gradientTransform="rotate(-.09 25070.104 -16220.487)" gradientUnits="userSpaceOnUse"><stop offset=".8" stop-color="#252e65" stop-opacity="0"/><stop offset=".8" stop-color="#252e65" stop-opacity=".04"/><stop offset=".84" stop-color="#252e65" stop-opacity=".39"/><stop offset=".88" stop-color="#252e65" stop-opacity=".65"/><stop offset=".92" stop-color="#252e65" stop-opacity=".85"/><stop offset=".96" stop-color="#252e65" stop-opacity=".96"/><stop offset="1" stop-color="#252e65"/></linearGradient><linearGradient id="linear-gradient-24" x1="161.47" x2="213.95" y1="149.83" y2="149.83" gradientTransform="rotate(1.52 902.226 120.355)" gradientUnits="userSpaceOnUse"><stop offset=".71" stop-color="#617fb5"/><stop offset=".88" stop-color="#617fb5"/></linearGradient><linearGradient id="linear-gradient-25" x1="162.5" x2="162.5" y1="53.16" y2="92.15" gradientTransform="rotate(-.09 25070.104 -16220.487)" gradientUnits="userSpaceOnUse"><stop offset=".02" stop-color="#fff"/><stop offset="1" stop-color="#9ebce0" stop-opacity="0"/></linearGradient><linearGradient id="linear-gradient-26" x1="130.28" x2="137.43" y1="65.55" y2="65.55" gradientTransform="rotate(-.09 25070.104 -16220.487)" gradientUnits="userSpaceOnUse"><stop offset=".01" stop-color="#cde2f5"/><stop offset=".53" stop-color="#9ebce0"/></linearGradient><linearGradient id="linear-gradient-27" x1="135.15" x2="137.24" y1="60.01" y2="60.01" gradientTransform="rotate(-.09 25070.104 -16220.487)" gradientUnits="userSpaceOnUse"><stop offset=".17" stop-color="#5e90cc"/><stop offset=".78" stop-color="#5e90cc"/></linearGradient><linearGradient id="linear-gradient-28" x1="133.31" x2="133.31" y1="58.27" y2="71.85" gradientTransform="rotate(-.09 25070.104 -16220.487)" gradientUnits="userSpaceOnUse"><stop offset=".35" stop-color="#fedada"/><stop offset=".96" stop-color="#deebf9" stop-opacity="0"/></linearGradient><linearGradient id="linear-gradient-29" x1="161.5" x2="161.5" y1="47.96" y2="53.16" gradientTransform="rotate(-.09 25070.104 -16220.487)" gradientUnits="userSpaceOnUse"><stop offset="0" stop-color="#edf4fc" stop-opacity=".6"/><stop offset=".08" stop-color="#f6f6ff"/><stop offset=".19" stop-color="#f1f4fe"/><stop offset=".32" stop-color="#e4eefb"/><stop offset=".36" stop-color="#deebf9"/><stop offset=".65" stop-color="#fedada"/><stop offset=".94" stop-color="#7ea6d6"/></linearGradient><linearGradient xlink:href="#linear-gradient-26" id="linear-gradient-30" x1="185.6" x2="192.15" y1="65.52" y2="65.52"/><linearGradient xlink:href="#linear-gradient-27" id="linear-gradient-31" x1="185.75" x2="187.73" y1="59.95" y2="59.95"/><linearGradient xlink:href="#linear-gradient-28" id="linear-gradient-32" x1="189.42" x2="189.42" y1="58.23" y2="71.9"/><linearGradient id="linear-gradient-33" x1="161.5" x2="161.5" y1="45.78" y2="48.18" gradientTransform="rotate(-.09 25070.104 -16220.487)" gradientUnits="userSpaceOnUse"><stop offset=".12" stop-color="#fff"/><stop offset=".19" stop-color="#fafcfe"/><stop offset=".28" stop-color="#edf4fc"/><stop offset=".34" stop-color="#deebf9"/></linearGradient><linearGradient id="linear-gradient-34" x1="161.54" x2="161.54" y1="54.05" y2="69.83" gradientTransform="translate(25.61 39.09)" gradientUnits="userSpaceOnUse"><stop offset=".21" stop-color="#deebf9"/><stop offset=".78" stop-color="#acceef"/></linearGradient><linearGradient id="linear-gradient-35" x1="161.84" x2="161.84" y1="97.47" y2="101.85" gradientTransform="rotate(-.09 25070.104 -16220.487)" gradientUnits="userSpaceOnUse"><stop offset=".49" stop-color="#deebf9"/><stop offset=".69" stop-color="#fedada"/></linearGradient><linearGradient id="linear-gradient-36" x1="161.5" x2="161.5" y1="107.33" y2="108.27" gradientTransform="rotate(-.09 25070.104 -16220.487)" gradientUnits="userSpaceOnUse"><stop offset="0" stop-color="#fdfeff"/><stop offset="1" stop-color="#fbd9d9"/></linearGradient><linearGradient id="linear-gradient-37" x1="135.58" x2="146.91" y1="99.79" y2="99.79" gradientTransform="rotate(-.09 25070.104 -16220.487)" gradientUnits="userSpaceOnUse"><stop offset=".18" stop-color="#9ebce0"/><stop offset=".64" stop-color="#9ebce0" stop-opacity=".5"/></linearGradient><linearGradient id="linear-gradient-38" x1="140.89" x2="140.89" y1="95.79" y2="103.22" gradientTransform="rotate(-.09 25070.104 -16220.487)" gradientUnits="userSpaceOnUse"><stop offset=".24" stop-color="#5e90cc"/><stop offset="1" stop-color="#5e90cc" stop-opacity="0"/></linearGradient><linearGradient id="linear-gradient-39" x1="140.91" x2="140.91" y1="97.28" y2="102.83" gradientTransform="rotate(-.09 25070.104 -16220.487)" gradientUnits="userSpaceOnUse"><stop offset=".29" stop-color="#4e6ea3"/><stop offset=".57" stop-color="#567fb7"/><stop offset=".78" stop-color="#5e8fca"/></linearGradient><linearGradient id="linear-gradient-40" x1="139.4" x2="139.4" y1="98.54" y2="101.85" gradientTransform="translate(25.67 39.13)" gradientUnits="userSpaceOnUse"><stop offset=".45" stop-color="#5e8fca"/><stop offset=".54" stop-color="#8c9ac3"/><stop offset=".64" stop-color="#b2a3be"/><stop offset=".73" stop-color="#d0aaba"/><stop offset=".83" stop-color="#e6afb6"/><stop offset=".92" stop-color="#f3b2b5"/><stop offset="1" stop-color="#f7b3b4"/></linearGradient><linearGradient id="linear-gradient-41" x1="139.4" x2="139.4" y1="99.02" y2="101.37" gradientTransform="translate(25.67 39.13)" gradientUnits="userSpaceOnUse"><stop offset=".12" stop-color="#425585"/><stop offset=".48" stop-color="#5e8fca"/><stop offset=".71" stop-color="#7da5d4"/></linearGradient><linearGradient id="linear-gradient-42" x1="139.39" x2="139.39" y1="99.5" y2="100.87" gradientTransform="translate(25.67 39.13)" gradientUnits="userSpaceOnUse"><stop offset=".29" stop-color="#7da5d4"/><stop offset=".52" stop-color="#5e8fca"/><stop offset=".88" stop-color="#425585"/></linearGradient><linearGradient id="linear-gradient-43" x1="142.8" x2="142.8" y1="99.34" y2="102.44" gradientTransform="rotate(-.09 25070.104 -16220.487)" gradientUnits="userSpaceOnUse"><stop offset=".2" stop-color="#7ea6d6"/><stop offset=".26" stop-color="#8aaeda"/><stop offset=".38" stop-color="#9ebce0"/><stop offset=".45" stop-color="#b3c3de"/><stop offset=".62" stop-color="#e7d3db"/><stop offset=".7" stop-color="#fbd9d9"/><stop offset=".81" stop-color="#fdfeff"/></linearGradient><linearGradient id="linear-gradient-44" x1="161.84" x2="161.84" y1="104.09" y2="107.03" gradientTransform="translate(25.68 39.09)" gradientUnits="userSpaceOnUse"><stop offset=".42" stop-color="#a1a8c3"/><stop offset=".69" stop-color="#717fa3"/><stop offset=".89" stop-color="#425585"/></linearGradient><linearGradient xlink:href="#linear-gradient-37" id="linear-gradient-45" x1="175.86" x2="187.19" y1="99.79" y2="99.79"/><linearGradient xlink:href="#linear-gradient-38" id="linear-gradient-46" x1="-6172.67" x2="-6172.67" y1="95.79" y2="103.22" gradientTransform="matrix(-1 0 0 1 -5965.27 49.21)"/><linearGradient xlink:href="#linear-gradient-39" id="linear-gradient-47" x1="-6172.64" x2="-6172.64" y1="97.28" y2="102.83" gradientTransform="matrix(-1 0 0 1 -5965.27 49.21)"/><linearGradient xlink:href="#linear-gradient-40" id="linear-gradient-48" x1="-6174.16" x2="-6174.16" y1="98.54" y2="101.85" gradientTransform="matrix(-1 0 0 1 -5965.11 39.05)"/><linearGradient xlink:href="#linear-gradient-41" id="linear-gradient-49" x1="-6174.16" x2="-6174.16" y1="99.02" y2="101.37" gradientTransform="matrix(-1 0 0 1 -5965.11 39.05)"/><linearGradient xlink:href="#linear-gradient-42" id="linear-gradient-50" x1="-6174.17" x2="-6174.17" y1="99.5" y2="100.87" gradientTransform="matrix(-1 0 0 1 -5965.11 39.05)"/><linearGradient xlink:href="#linear-gradient-43" id="linear-gradient-51" x1="-6170.76" x2="-6170.76" y1="99.34" y2="102.44" gradientTransform="matrix(-1 0 0 1 -5965.27 49.21)"/><linearGradient id="linear-gradient-52" x1="161.58" x2="186.38" y1="97.62" y2="97.62" gradientTransform="rotate(-.09 25070.104 -16220.487)" gradientUnits="userSpaceOnUse"><stop offset="0" stop-color="#deebf9"/><stop offset=".51" stop-color="#fcfcfd"/><stop offset="1" stop-color="#deebf9"/></linearGradient><linearGradient xlink:href="#linear-gradient-52" id="linear-gradient-53" x1="136.61" x2="161.41" y1="97.62" y2="97.62"/><linearGradient id="linear-gradient-54" x1="98.94" x2="98.94" y1="-62.76" y2="24.08" gradientTransform="matrix(.99 -.17 .17 .99 9.14 85.89)" gradientUnits="userSpaceOnUse"><stop offset=".54" stop-color="#f9fafb"/><stop offset=".68" stop-color="#f5f7fa"/><stop offset=".83" stop-color="#e9eff6"/><stop offset=".98" stop-color="#d4e2f0"/><stop offset="1" stop-color="#d1e0ef"/></linearGradient><linearGradient id="linear-gradient-55" x1="124.6" x2="124.6" y1="9.46" y2="92.48" gradientUnits="userSpaceOnUse"><stop offset=".17" stop-color="#f9fafb"/><stop offset=".56" stop-color="#f7f9fa"/><stop offset=".74" stop-color="#eff4f8"/><stop offset=".89" stop-color="#e2ebf4"/><stop offset="1" stop-color="#d1e0ef"/></linearGradient><style>.cls-11{fill:#707fa3}.cls-16{fill:#242f65}.cls-19{fill:#f16b6c}.cls-35{fill:#7ea6d6;opacity:.4}.cls-47{fill:#5e90cc;opacity:.54}.cls-57{fill:#cde2f5}.cls-72{fill:#425486}</style></defs><path d="M0 156.54s14.94-55.37 57.84-96.14c37.24-35.4 93.68-38.13 129.67 4.1 29.3 34.38 41.73 58.62 52.49 92Z" style="fill:url(#linear-gradient)"/><path d="M135.9 102.21V95.6l-10.37-11.14-20.55.06.34 2.99H88.68v-7.88H73.89V68.02H69.5v17.59h-9.64v22.84h18.69l-.86 5.3-59.6-.3-11.75 25.01 141.39-1.77 13.71 4.12 16.48-38.6H135.9z" style="opacity:.35;fill:#9dbbde"/><path d="M0 154.25c63.07-8.92 147.49-16.14 147.49-16.14l66.27-1S221.24 160.58 240 176H0Z" style="fill:url(#linear-gradient-2)"/><path d="M0 176h121.94c29.2-14.14 41.38-43.5 41.38-43.5l-8.57 1.5H92.07s5.16 8.35-49.21 15.79L0 154.25" style="opacity:.91;fill:url(#linear-gradient-3)"/><path id="Path" d="M5.36 153.78 42 156.35l1.76.12s66.5-11.56 103.78-18.36c.12-.78.38-1.93.46-2.71L33 150.77Z" style="fill:url(#linear-gradient-4)"/><path d="M148 123.82a1.24 1.24 0 0 1 0-.21 16.12 16.12 0 0 0-6.84-3.31s-54.26-13.9-68.86-18c-11.1-1.58-18.6.74-18.6.74-11.32 2.66-18.33 11.6-23.31 20.82s-2.81 17.65-1.11 20.38a9.38 9.38 0 0 0 4.24 3.76c-.85.8-.56 2.75-.56 2.75h4.22c6.75.35 22.85-1.67 22.85-1.67l2.5-1.18c2.52-.71 6.47-5.44 6.18-5.44s68.23-5.79 74.17-6.3c.14 0 3.51-.34 5-.6a60.86 60.86 0 0 0 .36-6.64c-.05-1.7-.12-3.4-.24-5.1Z" style="fill:url(#linear-gradient-5)"/><g id="Group"><path d="M147.85 136a46 46 0 0 0 .07-12.32 16.11 16.11 0 0 0-6.84-3.31s-54.25-13.9-68.85-17.95c-11.11-1.58-18.6.74-18.6.74-11.33 2.67-18.34 11.61-23.31 20.82s-2.81 17.65-1.12 20.39a9.44 9.44 0 0 0 4.3 3.63c-.85.8-.56 2.76-.56 2.76h4.22c6.74.34 22.85-1.68 22.85-1.68L62.5 148c2.53-.72 6.48-5.45 6.19-5.45s68.22-5.79 74.16-6.3c.15-.09 3.67-.05 5-.25Z" style="fill:url(#linear-gradient-6)"/><path d="M30.34 123.91a61.71 61.71 0 0 1 5.05-8c1.45-1.79 3.1-3.65 5-5.63a29.58 29.58 0 0 1 11.86-6.85c-1.38 5.06-8.2 16.16-8.34 16.3s-8.56 12-9.41 22.36l.43 2.43-6.13-1c-1.56-3.29-3.01-11.11 1.54-19.61Z" style="fill:url(#linear-gradient-7)"/><path d="M35.07 117c2.74-4.5 5.68-7.9 9.37-9.65a35.31 35.31 0 0 1 17.68-.71s8.05 1.52 3.56 6.48c-4.27 4.71-9 6.87-20.47 6.85l-2.86 5.19a8.17 8.17 0 0 1-4-.39L40.8 120c-2.99 0-7.3-.41-5.73-3Z" style="fill:url(#linear-gradient-8)"/><path d="M48.53 127.56s4.95-.71 3.93.53-5.53 5.68-5.53 5.68l-4.07-.12Z" style="fill:#a1a8c2"/><path d="M32.65 127.47c.1.25 0 5.86 0 5.86l-2.28-.07.22-6.13s1.77-.37 2.06.34Z" class="cls-11"/><path d="M43.88 138.75s14.31-13.6 18-16.86 11.89-11.45 25.08-9.5 56.53 12 56.53 12v6.78l-57.84 2.87A54.88 54.88 0 0 0 74 135.77a42 42 0 0 0-8.88 3.72s-8.05.09-8.41.71-16.25 3.8-16.25 3.8l3.42-5.29" style="fill:#f38888"/><path d="M45.79 130.69a4.63 4.63 0 0 1 1.41-.69c.66-.11 1.65-.16 1.89.58.39 1.13-1.53 2.27-2.74 2.37-1.45.15-2.42-.72-.56-2.26Z" style="fill:url(#linear-gradient-9)"/><path d="M28.77 143.4s6.13 1.81 16.1.09c0 .09 14.63.67 22.39.37 0 0-2 3.56-3.47 3.93l-30.39.27s-4.34-2.06-4.63-4.66Z" style="fill:url(#linear-gradient-10)"/><path d="M89.89 114.53s.63.23 1 2.21 1.09 9-.15 9.37c0 0-.67.19-.8-1.86s-.38-8.55-.38-8.55-.09-1.12.33-1.17ZM121.56 121.1s.39.14.63 1.43.68 5.79-.1 6.07c0 0-.41.11-.51-1.2s-.24-5.54-.24-5.54-.05-.71.22-.76Z" class="cls-11"/><path id="Shape" d="M87.41 116.16c-.1.19.54 10.23.54 10.23s-7.21-.8-11.84 0a44.45 44.45 0 0 0-8.46 2.39c-.1-.14-2.62-4.11-3.74-5.47 0 0 6.35-5.7 13.27-7.51 4.51-1.45 10.23.36 10.23.36Zm6.31 1.22c0 .14.43 9.45.43 9.45l23.21 1.44-.34-6.68Zm31.65 6 .24 5.61 12.81.6.07-4.18Z" style="fill:url(#linear-gradient-11)"/><path d="M94.23 140.25a11.7 11.7 0 0 1-2.65 4.53l-2.35.27a16.94 16.94 0 0 0 2.67-4.73Z" class="cls-16"/><path d="M72.25 102.35S61.19 101 53.75 106c0 0-5.51-.16-9 1.38a16.2 16.2 0 0 0-5.43 3.84s9.17-12.22 32.93-8.87Z" style="fill:#f7b3b4"/><path d="M48.63 111.27s1.17-1.54 1.92-2.64a7.86 7.86 0 0 1 3.17-2.63s11.26-.76 13.2 3.63c0 0 1.19 2.3-3.37 5.45 0-.08-1.36-3.19-14.92-3.81Z" style="fill:#9dbbde"/><path d="M40.43 144.06s2.62-5.88 27.39-10.06c31.16-.9 80.51-2.51 80.51-2.51l-.33 3.91c0 .16-4.93.76-5.07.78l-74.17 6.32-1.5 1.36a48 48 0 0 1-12.66.94l-9.73-1.31s-3.05.51-4.44.57Z" class="cls-19"/><path d="m64.49 147.14-31 .88s-.87.32-.56 2.75c0 0 7.47.51 15 .19s14.5-1.2 14.5-1.2Z" style="fill:#425586"/><path d="M30.25 131a1.43 1.43 0 0 0 .75 1.91 1.57 1.57 0 0 0 1.72-1.24 1.42 1.42 0 0 0-.75-1.89 1.55 1.55 0 0 0-1.72 1.22Z" style="fill:url(#linear-gradient-12)"/><path d="M54 105.87a19.17 19.17 0 0 0-5.16 5.51s-6.8-.66-10.29.76c-.03.02 3.7-6.73 15.45-6.27ZM114.74 113.5s3.42 1.93 4 4.66c.89 4.28.12 16.07.12 16.07l-.27 2.41a29.77 29.77 0 0 1-2.45 3c-.39.28.9 0 .9 0s2.06-2.14 2.25-3 1.29-11.38.13-18.39c.01 0-1.67-3.51-4.68-4.75ZM140.36 120.12s2.61 1.93 3 3.65c.58 2.71.07 10.2.07 10.2l-.17 1.54a17.58 17.58 0 0 1-1.6 1.91c-.24.16.58 0 .58 0a7.69 7.69 0 0 0 1.48-1.91 46.73 46.73 0 0 0 .08-11.69 6.14 6.14 0 0 0-3.44-3.7Z" class="cls-11"/><path d="m148 135.4-79.58 7a55.91 55.91 0 0 0-6 7.31l85.32-13.07a11.63 11.63 0 0 0 .26-1.24Z" style="fill:url(#linear-gradient-13)"/></g><path d="m160.64 152.56 51.89-.08v-2.91l-51.59.09-.3 2.9z" style="opacity:.81;fill:url(#linear-gradient-14)"/><path d="M169.55 148.4h34.86v1.87h-34.86z" style="fill:url(#linear-gradient-15)" transform="rotate(-.09 197.227 159.31)"/><rect width="5.82" height="3.97" x="203.3" y="147.65" rx=".22" style="fill:url(#linear-gradient-16)" transform="rotate(-.09 216.326 159.325)"/><rect width="5.82" height="3.97" x="164.11" y="147.72" rx=".22" style="fill:url(#linear-gradient-17)" transform="rotate(-.09 178.128 159.295)"/><path d="M169.5 119.38s1.89 11.2 3.08 15.18 28.77-.39 28.77-.39 3-.89 3.57-15.91-35.42 1.12-35.42 1.12Z" style="fill:url(#linear-gradient-18)"/><path d="M211.69 100.16a28.52 28.52 0 0 0-1.69-7.94l-45.89.07a28.34 28.34 0 0 0-1.63 7.95c-.53 5.5-1.59 27.47-1.53 28s7.41 3 7.41 3l37.52-.06s7.33-2.45 7.39-3-1.03-22.52-1.58-28.02Z" style="fill:url(#linear-gradient-19)"/><path d="M210.15 106.14c-.46-6.6-1.12-9.2-1.46-10.16a.83.83 0 0 0-.74-.53l-4.84-.33a2.64 2.64 0 0 1-1.32-.81H172.4a2.64 2.64 0 0 1-1.32.81l-4.83.35a.83.83 0 0 0-.74.54c-.33 1-1 3.56-1.43 10.16-.61 9.26-.77 16.9-.77 16.9s3.16-.49 4.54-.6a4.7 4.7 0 0 0 2.64-.81 5.54 5.54 0 0 1 1.9-1.18c.41 0 10.58-.07 14.75-.08s14.34 0 14.75 0a5.39 5.39 0 0 1 1.9 1.18 4.75 4.75 0 0 0 2.65.8c1.38.11 4.54.59 4.54.59s-.18-7.57-.83-16.83Z" style="fill:url(#linear-gradient-20)"/><path d="m213.38 132.45-2.46 1.39-23.67.81-21.89.13-4.42-2.25s-.48.23-.42 2.27.2 12.2.2 12.2.07 1.82.67 2l25.76.18h.07l25.78-.28c.61-.17.66-2 .66-2s.11-10.16.17-12.2-.45-2.25-.45-2.25Z" style="fill:url(#linear-gradient-21)"/><g style="opacity:.24"><path d="M217.77 109.32c0-.76-.26-6.2-.36-8.48a2.94 2.94 0 0 0-.55-1.56l-.18-.21-.07-.08-.28-.25a9 9 0 0 0-3-1.31l-2-.25a22.71 22.71 0 0 0-1.25-4.9s-.85-1.59-1.52-2.9c-.57-1.1-3.22-2.16-4.46-2.29h-.66l-.31.08h-.33a7.79 7.79 0 0 1-1.22.05h-28.91a6.28 6.28 0 0 1-2-.22h-.52c-1.24.13-3.89 1.2-4.45 2.3-.67 1.31-1.51 2.9-1.51 2.9a22.26 22.26 0 0 0-1.25 5l-1.24.1-.76.07a9.22 9.22 0 0 0-3 1.19 3.47 3.47 0 0 0-.29.25l-.07.07-.19.21a2.94 2.94 0 0 0-.62 1.54c-.2 2.27-.69 7.7-.74 8.45-.06 1 0 1.43.39 1.76a8.88 8.88 0 0 0 2.68 1.07c.94.21.93-1 .93-1s.91-6.41 1.17-8.67a9 9 0 0 0 .14-2.32 6.86 6.86 0 0 1 1.16-.07l.11-.45.19-.81q-.09.73-.18 1.56c-.53 5.5-1.59 27.47-1.53 28l-.05 4.25s-.48.23-.42 2.27.2 12.2.2 12.2.07 1.82.67 2h2.72v2.27a.41.41 0 0 0 .42.41h5a.41.41 0 0 0 .41-.42v-1l33.37-.06v1a.41.41 0 0 0 .41.41h5a.41.41 0 0 0 .42-.41v-2.27h3.87c.61-.17.66-2 .66-2s.11-10.16.17-12.2-.43-2.27-.43-2.27l-.07-4.26c.06-.57-1.07-22.53-1.62-28-.05-.47-.1-.92-.16-1.35l.19 1a6.56 6.56 0 0 1 1.15.11 9.45 9.45 0 0 0 0 2.33c.17 2.27.79 8.71.79 8.71s-.07 1.26.89 1.08a8.81 8.81 0 0 0 2.72-1c.32-.21.39-.67.37-1.63Z" style="fill:url(#linear-gradient-22)"/><path d="M199.84 87.24a6.79 6.79 0 0 0-3.84-2.19c-.72 0-6.45-.2-8.88-.17s-8.16.15-8.88.2a6.78 6.78 0 0 0-3.88 2.2h12.84Z" style="fill:url(#linear-gradient-23)"/></g><path d="M213.31 128.19s-5.71-.24-6.12-.33c-2.31-.51-6.25-2.77-8.74-2.88s-20.12-.08-22.61 0-6.42 2.39-8.72 2.91c-.42.09-6.13.35-6.13.35l-.05 4.25 1.64 1.48 8.48 2.65 15.95.08h.31l16-.13 8.47-2.69 1.64-1.47Z" style="fill:url(#linear-gradient-24)"/><path d="m192.94 126.63-10.32-.28v-.17h-5.53a4.24 4.24 0 0 0-.94.11l-.57.13h-3.9l-.16.45h1.88l-8 1.88s-.45.12-.39.43.08.56 1 .3 8.07-2.07 10.2-2.6l16.76.06Z" class="cls-35"/><path d="m207 129-11-3.49 5.14.09-.16-.3-21.46-.42-.16.34 15.47.27 11.7 4.34a.47.47 0 0 0 .68-.19s.29-.38-.21-.64Z" class="cls-35"/><path d="m210 92.22-45.89.07a22.07 22.07 0 0 0-1.17 4.71l.09.25s7.92 7.69 8 11.66a50.65 50.65 0 0 0 .65 7s-2.95.71-3.53-1.15c0 0-1.13 4.3 2.32 6.91 2.82 2.14 10.08 2.82 12.8 9.54h22.63s7.33-2.45 7.39-3-1.07-22.53-1.62-28a28.52 28.52 0 0 0-1.67-7.99Z" style="opacity:.39;fill:url(#linear-gradient-25)"/><path d="m163 97.29-2.13.18a9.22 9.22 0 0 0-3 1.19 3 3 0 0 0-1.21 2.12c-.2 2.27-.69 7.7-.74 8.45-.06 1 0 1.43.39 1.76a8.88 8.88 0 0 0 2.68 1.07c.94.21.93-1 .93-1s.91-6.41 1.17-8.67a9.07 9.07 0 0 0 .14-2.33 6.86 6.86 0 0 1 1.16-.07Z" style="fill:url(#linear-gradient-26)"/><path d="M162.85 98.06a8.41 8.41 0 0 0-2.09 2.15 1.22 1.22 0 0 1 .48-.19h.06a3.55 3.55 0 0 1 .55-.07h.55Z" style="fill:url(#linear-gradient-27)"/><path d="M160.9 97.47a9.22 9.22 0 0 0-3 1.19 3.54 3.54 0 0 0-.59.57 4.74 4.74 0 0 0-.32 1.19c-.19 1.38-.77 8.93-.77 8.93s0 .73.51.94 2.17.68 2.17.68.45.15.54-.45 1.14-10.47 1.14-10.47a7.2 7.2 0 0 1 1.1-2.65Z" style="fill:url(#linear-gradient-28)"/><path d="M210 92.22s-.85-1.59-1.52-2.9-4.25-2.54-5-2.26a6.1 6.1 0 0 1-2 .23h-28.91a6.28 6.28 0 0 1-2-.22c-.73-.29-4.31 1-5 2.27s-1.51 2.9-1.51 2.9Z" style="fill:url(#linear-gradient-29)"/><path d="M204.06 87a1.33 1.33 0 0 0-.52 0 6.1 6.1 0 0 1-2 .23h-28.91a6.28 6.28 0 0 1-2-.22 1.17 1.17 0 0 0-.52 0c-1.91.8-4.92 2.31-.33 2.3 4.17 0 12.34-.12 17.31-.2s13.14.15 17.31.14c4.6.07 1.6-1.42-.34-2.25Z" style="fill:#acceef"/><path d="m211.2 97.11 2.12.26a9 9 0 0 1 3 1.31 2.94 2.94 0 0 1 1.12 2.16c.1 2.28.35 7.72.36 8.48 0 1-.05 1.42-.46 1.73a8.81 8.81 0 0 1-2.72 1c-1 .18-.89-1.08-.89-1.08s-.62-6.44-.79-8.71a9.45 9.45 0 0 1 0-2.33 6.56 6.56 0 0 0-1.15-.11Z" style="fill:url(#linear-gradient-30)"/><path d="M211.36 97.89a8.35 8.35 0 0 1 2 2.23 1.27 1.27 0 0 0-.48-.22h-.05a2.58 2.58 0 0 0-.55-.08h-.55Z" style="fill:url(#linear-gradient-31)"/><path d="M213.32 97.37a9 9 0 0 1 3 1.31 2.6 2.6 0 0 1 .56.59 4.45 4.45 0 0 1 .27 1.2c.13 1.38.38 9 .38 9s0 .74-.55.92-2.2.6-2.2.6-.45.13-.52-.48-.68-10.49-.68-10.49a7.09 7.09 0 0 0-1-2.7Z" style="fill:url(#linear-gradient-32)"/><path d="M199.84 87.24a6.79 6.79 0 0 0-3.84-2.19c-.72 0-6.45-.2-8.88-.17s-8.16.15-8.88.2a6.78 6.78 0 0 0-3.88 2.2h12.84Z" style="fill:url(#linear-gradient-33)"/><rect width="35.38" height="15.78" x="169.47" y="93.14" rx=".82" style="opacity:.69;fill:url(#linear-gradient-34)" transform="rotate(-.09 197.267 108.38)"/><path d="M161.75 145.87a1.59 1.59 0 0 1 1-1.39 2.15 2.15 0 0 1 .76-.21 24.19 24.19 0 0 1 5.27 1.59c.43.22-7 0-7 0Z" class="cls-47"/><path d="M168.22 138.14s-.39-1.31 2.84-1.48 32.21 0 32.21 0a9.18 9.18 0 0 1 3.39.73c1.11.66-4.18 3.58-4.18 3.58l-30.61.05Z" style="fill:url(#linear-gradient-35)"/><path d="M212.61 145.79a1.57 1.57 0 0 0-1-1.39 2 2 0 0 0-.76-.2 23.63 23.63 0 0 0-5.27 1.6c-.42.23 7 0 7 0Z" class="cls-47"/><path d="m211.05 146.38-23.87.18-23.86-.1s-1.33.14-1.27.26.85.45 8.25.55c7 .1 16 .09 16.85.09h.07c.84 0 9.8 0 16.85-.14 7.39-.13 8.24-.58 8.24-.58l-1.26-.26Z" style="opacity:.41;fill:url(#linear-gradient-36)"/><path d="M161.25 134.92s-.09 5.44 1.59 6.79c0 0 .37.6 4.79 1s4.83-.08 4.93-.39-.1-.68-.69-1.32l-1.7-1.86a13.53 13.53 0 0 0-4.42-2.43Z" style="fill:url(#linear-gradient-37)"/><path d="M161.25 134.92s5.15 2.15 6.43 2.54a12.18 12.18 0 0 1 4.19 3.57s.18 1-2.55 1.31c0 0-5.27 0-6.43-1.24s-1.52-3.17-1.64-6.18Z" style="fill:url(#linear-gradient-38)"/><path d="M163.58 136.56s-.64-.41-1 .14a5.29 5.29 0 0 0 .08 2.54 2.91 2.91 0 0 0 1.79 2.2 20.32 20.32 0 0 0 5.3.48 1.11 1.11 0 0 0 .85-1.67Z" style="fill:url(#linear-gradient-39)"/><circle cx="165.07" cy="139.32" r="1.66" style="fill:url(#linear-gradient-40)" transform="rotate(-.09 171.772 146.558)"/><circle cx="165.07" cy="139.32" r="1.18" style="fill:url(#linear-gradient-41)" transform="rotate(-.09 171.772 146.558)"/><circle cx="165.06" cy="139.31" r=".68" style="fill:url(#linear-gradient-42)" transform="rotate(-.09 171.772 146.558)"/><path d="M167.21 138.46s-.31.1-.18.56a1.45 1.45 0 0 1-.23 1.47c-.44.54-.44.73-.05.9a11 11 0 0 0 3.2.1.86.86 0 0 0-.08-1.63c-.87-.41-2.66-1.4-2.66-1.4Z" style="fill:url(#linear-gradient-43)"/><path d="M171.87 141a12.18 12.18 0 0 0-4.19-3.57c-1.13-.35-5.29-2.06-6.24-2.46a43.3 43.3 0 0 0 5.61 2.74 9.41 9.41 0 0 1 3.75 2.73 9.57 9.57 0 0 1 .79 1.14.69.69 0 0 0 .28-.58Z" class="cls-57"/><g style="opacity:.65"><rect width="12.42" height="2.94" x="181.31" y="143.18" rx=".29" style="fill:url(#linear-gradient-44)" transform="rotate(-.09 197.232 152.944)"/><rect width="12.42" height="2.57" x="181.01" y="143.36" rx=".29" style="fill:#a1a9c3" transform="rotate(-.09 197.232 152.944)"/></g><path d="M212.86 134.84s.11 5.43-1.57 6.79c0 0-.36.61-4.78 1.05s-4.84-.07-4.94-.38.1-.68.69-1.32l1.69-1.86a13.6 13.6 0 0 1 4.42-2.45Z" style="fill:url(#linear-gradient-45)"/><path d="M212.86 134.84s-5.15 2.16-6.42 2.56a12.06 12.06 0 0 0-4.18 3.58s-.18 1 2.55 1.3c0 0 5.27 0 6.42-1.26s1.51-3.18 1.63-6.18Z" style="fill:url(#linear-gradient-46)"/><path d="M210.53 136.48s.64-.41 1 .14a5.14 5.14 0 0 1-.07 2.54 2.91 2.91 0 0 1-1.78 2.21 20.3 20.3 0 0 1-5.3.49 1.1 1.1 0 0 1-.85-1.67Z" style="fill:url(#linear-gradient-47)"/><circle cx="209.05" cy="139.25" r="1.66" style="fill:url(#linear-gradient-48)" transform="rotate(-.09 216.336 146.593)"/><circle cx="209.05" cy="139.25" r="1.18" style="fill:url(#linear-gradient-49)" transform="rotate(-.09 216.336 146.593)"/><circle cx="209.06" cy="139.24" r=".68" style="fill:url(#linear-gradient-50)" transform="rotate(-.09 216.336 146.593)"/><path d="M206.91 138.4s.31.09.19.55a1.45 1.45 0 0 0 .23 1.48c.44.53.44.72 0 .89a11 11 0 0 1-3.2.11.87.87 0 0 1 .07-1.63c.93-.41 2.71-1.4 2.71-1.4Z" style="fill:url(#linear-gradient-51)"/><path d="M202.26 141a12.06 12.06 0 0 1 4.18-3.58c1.12-.35 5.28-2.09 6.23-2.48a44.77 44.77 0 0 1-5.6 2.75 9.45 9.45 0 0 0-3.74 2.75 8.82 8.82 0 0 0-.79 1.14.69.69 0 0 1-.28-.58Z" class="cls-57"/><ellipse cx="163.55" cy="145.32" class="cls-19" rx=".67" ry=".68" transform="rotate(-.09 171.767 152.924)"/><ellipse cx="210.42" cy="145.21" class="cls-19" rx=".67" ry=".68" transform="rotate(-.09 222.697 152.964)"/><path d="M211.27 133.44a22.48 22.48 0 0 1-3.1 1.11c-2.47.67-3.51.9-4.9 2.06a14.58 14.58 0 0 0-1.46 1.08 4.72 4.72 0 0 1-2.67 1.25c-4.12 1.08-11.88.93-11.88.93a70.83 70.83 0 0 0 8.55-.13c5.33-.35 5-.69 5.57-.86a35.56 35.56 0 0 0 3.7-2.28s3.16-1.37 4.85-1.88c1.87-.57 2.06-.68 2.12-.91s-.36-.24-.78-.37Z" style="fill:url(#linear-gradient-52)"/><path d="M175.2 139a4.72 4.72 0 0 1-2.67-1.25 16.43 16.43 0 0 0-1.47-1.07c-1.39-1.15-1.65-1.13-4.07-2-1.45-.5-2.54-.74-3.94-1.18-.42.13-.8.27-.77.37s.24.34 2.12.91c1.68.5 4.85 1.86 4.85 1.86a36.83 36.83 0 0 0 3.7 2.27c.61.16.25.51 5.58.84a71.16 71.16 0 0 0 8.55.1s-7.76.2-11.88-.85Z" style="fill:url(#linear-gradient-53)"/><path d="M137.59 77.17 123.31 27a2.68 2.68 0 0 1-3.31-1.95v-.15a3 3 0 0 1-.07-.79 2.11 2.11 0 0 1 0-.25c0-.08 0-.16.05-.24a2 2 0 0 1 .07-.23 1.8 1.8 0 0 1 .08-.21 1.62 1.62 0 0 1 .1-.18s0 0 0-.05l.1-.16a.21.21 0 0 0 0-.06l.11-.14.06-.06.11-.12a.46.46 0 0 1 .07-.07l.11-.1.09-.07.11-.08.12-.07.1-.06.15-.07h.08l.25-.08-3.57-13.07a5.85 5.85 0 0 0-7.21-4L70.79 16.11a5.84 5.84 0 0 0-4 7.24l3.69 12.95a2.55 2.55 0 0 1 1.93.33l.19.13.17.14.15.14v.06l.12.14.06.08.09.14.06.11a.75.75 0 0 1 .07.12l.08.18v.07l.09.26v.21A2.69 2.69 0 0 1 72 41.6l14.27 50.18a5.85 5.85 0 0 0 7.21 4l40.12-11.37a5.84 5.84 0 0 0 3.99-7.24ZM112.22 26a.34.34 0 0 1 .1 0h.36l.16.07a1.88 1.88 0 0 1 .18.12 1.3 1.3 0 0 1 .41.56v.09a1.24 1.24 0 1 1-2.38.68s0-.05 0-.08a1.23 1.23 0 0 1 0-.69l.09-.2.11-.15.06-.06.11-.1a.41.41 0 0 1 .11-.07l.09-.06a.92.92 0 0 1 .23-.09 1 1 0 0 1 .37-.02Zm-5.11 1.45h.24a.8.8 0 0 1 .15 0h.07l.19.07a1.26 1.26 0 0 1 .6.7.14.14 0 0 0 0 .06 1.24 1.24 0 1 1-2.39.68 1.24 1.24 0 0 1 .12-.93 1 1 0 0 1 .11-.17v-.05l.12-.11a.41.41 0 0 1 .11-.07.47.47 0 0 1 .09-.06l.23-.1Zm-5.67 1.59a1.11 1.11 0 0 1 .25-.05h.11a.56.56 0 0 1 .13 0h.23a.72.72 0 0 1 .2.09 1.27 1.27 0 0 1 .59.73 1.24 1.24 0 0 1-.85 1.54 1.25 1.25 0 0 1-1.54-.86 1.24 1.24 0 0 1 .88-1.44Zm-5.11 1.46a1.25 1.25 0 1 1-.84 1.58 1.25 1.25 0 0 1 .84-1.58ZM91.22 32a1.25 1.25 0 1 1-.85 1.54 1.24 1.24 0 0 1 .85-1.54Zm-5.12 1.41a1.26 1.26 0 0 1 1.54.87s0 .06 0 .1a1.25 1.25 0 0 1-.87 1.44 1.24 1.24 0 0 1-1.49-.75.54.54 0 0 1 0-.11 1.25 1.25 0 0 1 .82-1.55Zm-9.54 5.32a1.25 1.25 0 1 1 .85-1.54 1.16 1.16 0 0 1 0 .18 1.25 1.25 0 0 1-.85 1.36Zm5.12-1.46a1.23 1.23 0 0 1-1.48-.71.94.94 0 0 1-.06-.15 1.24 1.24 0 1 1 2.39-.68v.14a1.24 1.24 0 0 1-.85 1.4ZM117.77 27a1.24 1.24 0 0 1-1.53-.86.51.51 0 0 1 0-.13 1.19 1.19 0 0 1 0-.46.83.83 0 0 1 .06-.21.89.89 0 0 1 .08-.17l.1-.13.07-.07.1-.09a.41.41 0 0 1 .11-.07l.08-.06.23-.09h.69l.15.06.16.1.15.14a1.36 1.36 0 0 1 .24.38l.06.14a1.26 1.26 0 0 1-.75 1.52Z" style="opacity:.51;fill:#717fa4"/><path d="M121.12 24.58a2.69 2.69 0 0 0 3.27 1.93l14.28 50.18a5.85 5.85 0 0 1-4 7.24L94.55 95.35a5.85 5.85 0 0 1-7.21-4L73.06 41.12a2.77 2.77 0 0 0-1.51-5.3l-3.68-12.95a5.84 5.84 0 0 1 4-7.24L112 4.21a5.85 5.85 0 0 1 7.21 4.06l3.69 12.94a2.68 2.68 0 0 0-1.78 3.37ZM77 35.85a1.24 1.24 0 0 0-.85 1.54 1.24 1.24 0 1 0 .85-1.54Zm5.11-1.46a1.25 1.25 0 1 0 1.54.86 1.25 1.25 0 0 0-1.59-.86Zm5.12-1.45a1.25 1.25 0 1 0 1.53.86 1.24 1.24 0 0 0-1.58-.86Zm5.11-1.46a1.25 1.25 0 0 0 .66 2.41 1.25 1.25 0 0 0-.69-2.41ZM97.4 30a1.24 1.24 0 0 0-.85 1.54A1.24 1.24 0 1 0 97.4 30Zm5.12-1.46a1.25 1.25 0 1 0 1.53.86 1.24 1.24 0 0 0-1.53-.83Zm5.42-1.54a1.25 1.25 0 1 0 1.53.86 1.24 1.24 0 0 0-1.53-.86Zm5.11-1.46a1.25 1.25 0 1 0 1.54.87 1.24 1.24 0 0 0-1.54-.84Zm5.11-1.45a1.24 1.24 0 0 0-.85 1.54 1.24 1.24 0 1 0 .85-1.54Z" style="fill:url(#linear-gradient-54)"/><path d="m98.5 49.79 2.36 8.26-8.27 2.35-2.35-8.26 8.26-2.35m1.93-3.45-13.64 3.88 3.88 13.63L104.31 60l-3.88-13.63Z" class="cls-72"/><path d="m96.94 52.6-3.88 1.1 1.1 3.89 3.88-1.11-1.1-3.88zM115.59 44.92l2.35 8.27-8.27 2.35-2.35-8.26 8.27-2.36m1.92-3.45-13.64 3.88L107.75 59l13.64-3.88-3.88-13.64Z" class="cls-72"/><path d="m114.02 47.74-3.88 1.1 1.1 3.88 3.88-1.1-1.1-3.88zM112.59 61.25l-3.88 1.1 1.1 3.88 3.89-1.1-1.11-3.88zM120 66.24l.77 2.72-2.72.77-.77-2.73 2.72-.77m1.92-3.45-8.09 2.3 2.3 8.09 8.09-2.3-2.3-8.09ZM103.34 66.78l2.35 8.27-8.26 2.35-2.35-8.27 8.26-2.35m1.92-3.45-13.63 3.88 3.88 13.64L109.14 77l-3.88-13.64Z" class="cls-72"/><path d="m101.78 69.6-3.89 1.1L99 74.58l3.88-1.1-1.1-3.88zM122.34 58.47l-2.7.77 3.14 11.02-10.93 3.11.74 2.62 13.63-3.88-3.88-13.64z" class="cls-72"/><path d="m122.88 21.21-3.69-12.94A5.85 5.85 0 0 0 112 4.21L71.86 15.63a5.84 5.84 0 0 0-4 7.24l3.69 12.93a2.68 2.68 0 0 1 3.16 2 1.6 1.6 0 0 1 0 .21l1.41-.41a1.08 1.08 0 0 1-.08-.19 1.24 1.24 0 0 1 .96-1.56 1.25 1.25 0 0 1 1.54.86v.18l2.75-.81-.06-.15a1.24 1.24 0 1 1 2.39-.68v.15l2.74-.81v-.11a1.24 1.24 0 1 1 2.38-.68s0 .07 0 .1l2.74-.8v-.08a1.24 1.24 0 1 1 2.39-.68.17.17 0 0 0 0 .07l2.73-.8a1.24 1.24 0 1 1 2.39-.68l2.73-.8a1.26 1.26 0 0 1 .86-1.54 1.24 1.24 0 0 1 1.53.85l3-.89a1.24 1.24 0 0 1 2.37-.7l2.73-.8a1.24 1.24 0 0 1 2.37-.69l2.74-.8a1.23 1.23 0 0 1 2.36-.69l1.43-.42a2.68 2.68 0 0 1 1.77-3.24Z" style="fill:#fb8989"/><path d="m144.47 9.6-41.71.14A5.85 5.85 0 0 0 97 15.63v13.46a2.77 2.77 0 0 1 0 5.51l.17 52.18a5.85 5.85 0 0 0 5.83 5.85l41.72-.14a5.84 5.84 0 0 0 5.8-5.89l-.17-52.17a2.69 2.69 0 0 1-2.62-2.75 2 2 0 0 1 0-.25v-.22a.09.09 0 0 1 0-.05 1.06 1.06 0 0 1 0-.19v-.07l.06-.17v-.08l.07-.15a.2.2 0 0 1 0-.08l.07-.15a.56.56 0 0 0 0-.08l.08-.13.06-.08.09-.12.07-.08.1-.1.08-.08.1-.09.09-.07.1-.08.11-.06.1-.07.12-.06.1-.05.13-.05h.86V15.62a5.85 5.85 0 0 0-5.65-6.02Zm-9.82 20.9h.22l.11.06.09.05a.94.94 0 0 1 .12.09h.05a.71.71 0 0 1 .12.13 1 1 0 0 1 .11.17.88.88 0 0 1 .09.2 1.42 1.42 0 0 1 0 .22v.15a1.24 1.24 0 1 1-2.48 0v-.13a1.25 1.25 0 0 1 .13-.44.76.76 0 0 1 .12-.19.86.86 0 0 1 .13-.14l.13-.1h.08l.12-.06h.23a.88.88 0 0 1 .24 0 1 1 0 0 1 .39-.01Zm-5.64 0h.23l.13.07h.07l.14.11.13.15a1.26 1.26 0 0 1 .24.65.31.31 0 0 1 0 .1 1.24 1.24 0 1 1-2.48 0s0-.06 0-.08a1.34 1.34 0 0 1 .23-.66 1.15 1.15 0 0 1 .14-.17.57.57 0 0 1 .15-.12h.07l.13-.07H128.42a.93.93 0 0 1 .24 0 1 1 0 0 1 .34.04Zm-5.31 0H123.93l.14.08h.06l.16.13a1.22 1.22 0 0 1 .38.84s0 0 0 .06a1.24 1.24 0 1 1-2.48 0 1.26 1.26 0 0 1 .37-.86l.16-.13h.06l.15-.08h.12a.35.35 0 0 1 .11 0h.24Zm-5.56 0h.48l.15.09h.06l.17.14a1.2 1.2 0 0 1 .37.87 1.24 1.24 0 0 1-1.22 1.4 1.25 1.25 0 0 1 0-2.5Zm-5.32 0a1.24 1.24 0 0 1 1.25 1.24 1.24 1.24 0 1 1-1.24-1.28Zm-5.31 0a1.25 1.25 0 0 1 1.24 1.25.22.22 0 0 1 0 .08 1.23 1.23 0 0 1-2.46 0s0-.07 0-.1a1.26 1.26 0 0 1 1.22-1.17Zm-5.32 0a1.26 1.26 0 0 1 1.25 1.25.5.5 0 0 1 0 .12 1.24 1.24 0 1 1-1.23-1.37Zm37.54 2.5a1.25 1.25 0 0 1-1.24-1.25v-.17a1.42 1.42 0 0 1 .05-.22 1.46 1.46 0 0 1 .07-.19.86.86 0 0 1 .1-.16.65.65 0 0 1 .11-.12l.06-.05.12-.09h.09l.1-.05h.46a1 1 0 0 1 .24 0H140.11l.1.05.1.06.11.07.06.06.11.11v.05l.09.13a1.3 1.3 0 0 1 .08.17 1.17 1.17 0 0 1 0 .2 1.23 1.23 0 0 1 0 .19 1.25 1.25 0 0 1-1.03 1.21Zm5.32 0a1.25 1.25 0 0 1-1.25-1.25 1.64 1.64 0 0 1 0-.22 1.09 1.09 0 0 1 .05-.17.43.43 0 0 0 0-.05c0-.05.05-.09.07-.14v-.07a.76.76 0 0 0 .08-.11l.06-.07.09-.09.08-.07.09-.07.11-.06h.09l.14-.05H145.29l.15.05h.08l.12.06.08.06.09.08a.27.27 0 0 1 .08.07l.07.09.07.09a.47.47 0 0 1 0 .1.93.93 0 0 1 .05.1.56.56 0 0 1 0 .12v.1a1.94 1.94 0 0 1 0 .24 1.24 1.24 0 0 1-1.03 1.2Z" style="fill:#717fa4"/><path d="M148.6 31.53a2.68 2.68 0 0 0 2.62 2.75l.18 52.17a5.85 5.85 0 0 1-5.81 5.89l-41.71.14A5.85 5.85 0 0 1 98 86.63l-.17-52.17a2.77 2.77 0 0 0 0-5.51V15.49a5.83 5.83 0 0 1 5.8-5.89l41.71-.14a5.85 5.85 0 0 1 5.85 5.85v13.46a2.68 2.68 0 0 0-2.59 2.76Zm-45.6-1.1a1.26 1.26 0 1 0 1.25 1.25 1.25 1.25 0 0 0-1.25-1.25Zm5.32 0a1.25 1.25 0 1 0 1.24 1.24 1.24 1.24 0 0 0-1.21-1.25Zm5.31 0a1.25 1.25 0 1 0 1.25 1.24 1.24 1.24 0 0 0-1.22-1.27Zm5.32 0a1.25 1.25 0 1 0 1.25 1.25 1.26 1.26 0 0 0-1.2-1.3Zm5.32 0a1.25 1.25 0 0 0-1.24 1.26 1.24 1.24 0 1 0 2.48 0 1.25 1.25 0 0 0-1.21-1.33Zm5.31 0a1.26 1.26 0 1 0 1.25 1.25 1.25 1.25 0 0 0-1.22-1.34Zm5.64 0a1.25 1.25 0 1 0 1.24 1.24 1.24 1.24 0 0 0-1.21-1.34Zm5.32 0a1.25 1.25 0 1 0 1.24 1.25 1.24 1.24 0 0 0-1.21-1.37Zm5.31 0a1.25 1.25 0 1 0 1.25 1.25 1.25 1.25 0 0 0-1.22-1.39Z" style="fill:url(#linear-gradient-55)"/><path d="M120 49.68v8.6h-8.59v-8.59H120m2.78-2.8h-14.17v14.17h14.17V46.88Z" class="cls-16"/><path d="m117.74 51.97-4.04.01.02 4.04 4.03-.02-.01-4.03zM137.77 49.62v8.6h-8.59v-8.59h8.59m2.78-2.8h-14.17v14.18h14.18V46.83Z" class="cls-16"/><path d="m135.5 51.91-4.04.01.02 4.04 4.03-.01-.01-4.04zM130.47 64.53l-4.03.01.01 4.04 4.04-.02-.02-4.03zM136.25 71.34v2.82h-2.83v-2.81h2.83m2.78-2.8h-8.41v8.41h8.41v-8.41ZM120.07 67.36v8.59h-8.59v-8.6h8.59m2.78-2.8h-14.17v14.18h14.18l-.05-14.17Z" class="cls-16"/><path d="m117.8 69.64-4.04.02.02 4.03 4.03-.01-.01-4.04zM140.61 64.5h-2.8l.03 11.47-11.37.03.01 2.72 14.18-.05-.05-14.17z" class="cls-16"/><path d="m100.36 31.79.06.06h1.39v-.14a1.24 1.24 0 1 1 2.48 0s0 .08 0 .12h2.85v-.1a1.24 1.24 0 1 1 2.48 0v.08h2.84v-.06a1.24 1.24 0 1 1 2.48 0h2.83a1.24 1.24 0 1 1 2.48 0h2.84a1.24 1.24 0 0 1 2.48 0h2.84a1.24 1.24 0 0 1 2.47 0h3.18a1.23 1.23 0 0 1 2.45 0h2.87a1.23 1.23 0 0 1 1.22-1.08 1.24 1.24 0 0 1 1.22 1.05h2.88a1.23 1.23 0 0 1 2.43 0h1.51a2.66 2.66 0 0 1 2.59-2.51V15.75a5.85 5.85 0 0 0-5.85-5.85l-41.78-.3a5.83 5.83 0 0 0-5.8 5.89v13.46a2.68 2.68 0 0 1 2.52 2.74Z" style="fill:#fa6b6b"/></svg>